<svg width="640" height="513" viewBox="0 0 640 513" fill="none" xmlns="http://www.w3.org/2000/svg">
<g clip-path="url(#clip0_17_19)">
<path d="M495.936 453.839C491.511 447.678 485.52 443.171 477.988 441.483C471.421 440.012 464.668 440.263 457.992 440.314L373.578 440.961C366.349 441.017 359.417 447.244 359.753 454.706C360.086 462.105 365.829 468.51 373.578 468.451C398.306 468.261 423.033 468.072 447.76 467.882C453.59 467.837 459.423 467.733 465.253 467.752C466.562 467.756 467.865 467.825 469.173 467.839C469.49 467.843 469.719 467.84 469.88 467.833C469.921 467.846 469.955 467.857 470.008 467.871C470.69 468.058 471.39 468.186 472.076 468.363C471.836 468.37 472.522 468.795 472.866 468.939C472.913 469.032 473.014 469.196 473.182 469.451C473.417 469.889 474.113 471.219 474.142 471.177C475.187 473.805 476.049 476.501 476.723 479.246C478.329 485.3 478.682 486.565 478.914 492.245C479.206 499.42 485.063 506.331 492.739 505.99C499.979 505.667 506.877 499.94 506.564 492.245C506.036 479.278 503.747 464.713 495.936 453.839Z" fill="#758ECD" fill-opacity="0.25"/>
<path d="M378.54 484.855C376.955 475.303 375.399 465.745 373.783 456.198C372.143 446.513 368.794 437.644 361.213 431.288C359.187 429.59 357.087 428.004 354.978 426.423C354.236 425.868 353.495 425.311 352.763 424.743C352.719 424.709 352.691 424.688 352.653 424.659C352.572 424.59 352.476 424.508 352.346 424.399C349.186 421.74 346.133 418.963 343.225 416.012C340.642 413.39 338.173 410.657 335.816 407.812C335.227 407.102 334.645 406.385 334.071 405.661C333.973 405.537 333.441 404.854 333.091 404.408C332.765 403.962 332.17 403.157 332.07 403.016C331.399 402.073 330.741 401.122 330.094 400.162C325.691 393.603 321.878 386.671 318.7 379.446C318.385 378.729 318.077 378.009 317.777 377.284C317.696 377.062 317.592 376.778 317.454 376.4C316.813 374.649 316.174 372.9 315.588 371.128C314.344 367.365 313.274 363.546 312.379 359.672C311.937 357.759 311.538 355.836 311.184 353.903C311.001 352.91 310.83 351.914 310.671 350.916C310.645 350.75 310.49 349.674 310.398 349.065C310.331 348.454 310.205 347.372 310.188 347.204C310.087 346.198 309.997 345.191 309.919 344.184C309.742 341.916 309.622 339.644 309.56 337.368C309.454 333.324 309.527 329.281 309.779 325.237C309.922 322.965 310.126 320.699 310.378 318.438C310.393 318.299 310.405 318.188 310.416 318.089C310.431 317.988 310.449 317.873 310.47 317.73C310.656 316.48 310.852 315.232 311.071 313.988C311.9 309.263 312.978 304.585 314.302 299.974C314.928 297.793 315.609 295.629 316.343 293.483C316.671 292.531 317.008 291.582 317.357 290.637C317.334 290.698 318.378 288.046 318.392 287.957C322.535 278.225 329.312 269.353 329.321 258.297C329.328 250.812 322.958 243.642 315.496 243.988C311.776 244.127 308.255 245.697 305.676 248.366C303.097 251.035 301.661 254.596 301.671 258.297C301.671 258.465 301.67 258.609 301.669 258.748C301.6 258.981 301.542 259.175 301.489 259.347C300.681 261.093 299.692 262.751 298.805 264.454C296.376 269.113 294.303 273.924 292.334 278.807C289.111 286.758 286.643 294.991 284.964 303.4C281.315 321.823 281.032 340.749 284.128 359.272C289.488 391.755 307.166 422.849 331.741 443.75C333.874 445.564 336.059 447.317 338.264 449.034C339.177 449.745 340.097 450.442 341.022 451.135C341.459 451.463 343.27 452.882 342.473 452.195C344.186 453.648 344.907 454.379 345.347 455.45C345.411 455.697 345.498 456.032 345.615 456.49C345.926 457.697 346.22 458.902 346.465 460.126C348.604 470.822 350.091 481.698 351.877 492.463C353.106 499.86 362.265 504.675 368.884 502.458C376.588 499.877 379.856 492.781 378.54 484.855Z" fill="#758ECD" fill-opacity="0.25"/>
<path d="M497.334 512.598C491.528 512.613 485.953 510.338 481.832 506.272C477.711 502.205 475.381 496.68 475.352 490.908V475.229C458.841 477.066 402.3 476.641 386.093 474.052V490.28C386.05 496.048 383.715 501.565 379.597 505.628C375.479 509.691 369.913 511.972 364.111 511.972C358.309 511.972 352.743 509.691 348.625 505.628C344.507 501.565 342.172 496.048 342.129 490.28V458.417C320.178 446.293 301.878 428.566 289.119 407.064C276.36 385.562 269.603 361.064 269.546 336.099C269.546 293.293 289.06 253.361 323.083 226.542C345.205 209.046 372.083 198.523 400.265 196.327C404.09 196.028 407.939 195.877 411.704 195.877C424.97 195.877 484.821 197.915 499.838 202.21L534.08 168.431C534.583 167.927 535.226 167.585 535.926 167.446C536.626 167.307 537.352 167.379 538.011 167.652C538.675 167.915 539.244 168.371 539.642 168.96C540.041 169.55 540.251 170.246 540.244 170.956V176.327L546.912 169.762C547.414 169.258 548.056 168.915 548.756 168.776C549.456 168.637 550.182 168.709 550.84 168.982C551.505 169.244 552.074 169.701 552.473 170.291C552.872 170.881 553.082 171.577 553.076 172.288V232.305C570.258 247.704 583.353 267.08 591.202 288.714C599.051 310.349 601.41 333.574 598.072 356.332C594.733 379.089 585.799 400.677 572.061 419.181C558.324 437.685 540.207 452.535 519.316 462.414V490.908C519.288 496.68 516.958 502.205 512.837 506.272C508.716 510.338 503.14 512.613 497.334 512.598ZM477.08 473.28V490.908C477.124 496.22 479.277 501.299 483.071 505.04C486.864 508.781 491.991 510.88 497.334 510.88C502.677 510.88 507.804 508.781 511.598 505.04C515.391 501.299 517.544 496.22 517.588 490.908V461.328L518.082 461.096C541.522 450.037 561.421 432.737 575.569 411.115C593.598 383.524 601.096 350.428 596.706 317.816C592.315 285.205 576.327 255.234 551.635 233.327L551.348 233.071V172.288C551.354 171.918 551.246 171.556 551.039 171.25C550.832 170.943 550.535 170.707 550.188 170.573C549.844 170.427 549.463 170.388 549.096 170.46C548.729 170.533 548.393 170.714 548.131 170.98L538.516 180.447V170.956C538.522 170.587 538.415 170.225 538.207 169.918C538 169.612 537.703 169.376 537.357 169.242C537.012 169.096 536.63 169.057 536.263 169.13C535.895 169.203 535.558 169.385 535.296 169.651L500.321 204.154L499.824 203.999C485.864 199.655 425.07 197.595 411.704 197.595C407.983 197.595 404.18 197.745 400.401 198.04C372.561 200.21 346.01 210.604 324.157 227.888C290.549 254.379 271.274 293.821 271.274 336.099C271.332 360.843 278.052 385.12 290.738 406.409C303.423 427.698 321.611 445.222 343.411 457.16L343.857 457.405V490.281C343.901 495.592 346.055 500.671 349.849 504.411C353.642 508.151 358.768 510.249 364.111 510.249C369.454 510.249 374.58 508.151 378.374 504.411C382.167 500.671 384.321 495.592 384.365 490.281V471.995L385.389 472.186C399.954 474.911 461.282 475.34 476.104 473.408L477.08 473.28Z" fill="#758ECD"/>
<path d="M380.192 102.327L284.504 130.916C281.46 131.829 278.906 133.906 277.401 136.69C275.897 139.475 275.566 142.739 276.481 145.765C277.396 148.792 279.482 151.334 282.281 152.833C285.08 154.332 288.362 154.664 291.408 153.758L375.145 128.734L376.9 128.21C377.255 119.223 379.707 110.442 384.063 102.559C383.516 102.315 382.932 102.164 382.335 102.112C381.613 102.043 380.885 102.116 380.192 102.327Z" fill="#63D6A9"/>
<path d="M289.753 159.853C288.483 159.85 287.246 159.45 286.216 158.71C285.187 157.97 284.418 156.927 284.017 155.729L278.034 137.778C277.784 137.029 277.685 136.237 277.743 135.45C277.8 134.662 278.014 133.894 278.37 133.188C278.727 132.482 279.219 131.853 279.821 131.337C280.422 130.821 281.119 130.427 281.873 130.179L359.753 104.519C360.507 104.27 361.303 104.172 362.095 104.229C362.888 104.287 363.661 104.498 364.37 104.853C365.08 105.207 365.713 105.697 366.232 106.294C366.752 106.892 367.148 107.585 367.398 108.335L373.381 126.285C373.879 127.762 373.779 129.373 373.103 130.777C372.427 132.182 371.227 133.269 369.758 133.81C369.686 133.837 369.613 133.862 369.54 133.886L291.662 159.545C291.046 159.749 290.402 159.853 289.753 159.853Z" fill="#758ECD"/>
<path d="M435.605 70.4482C419.886 70.4542 404.787 76.5407 393.503 87.4193C382.218 98.2979 375.635 113.115 375.145 128.734C375.128 129.344 375.119 129.963 375.119 130.581C375.119 142.474 378.667 154.101 385.313 163.989C391.959 173.878 401.406 181.586 412.458 186.137C423.51 190.688 435.672 191.879 447.405 189.559C459.138 187.239 469.915 181.512 478.374 173.102C486.833 164.692 492.594 153.977 494.928 142.313C497.262 130.648 496.064 118.557 491.486 107.569C486.908 96.5814 479.155 87.1899 469.209 80.5824C459.262 73.9749 447.568 70.4482 435.605 70.4482ZM435.605 188.996C420.026 188.98 405.091 182.821 394.075 171.869C383.059 160.918 376.864 146.069 376.848 130.581C376.848 129.782 376.865 128.992 376.899 128.21C377.367 116.768 381.208 105.714 387.944 96.4243C394.68 87.1344 404.015 80.018 414.786 75.96C425.558 71.9019 437.292 71.0812 448.529 73.6C459.766 76.1188 470.011 81.8659 477.989 90.1267C485.967 98.3875 491.326 108.798 493.401 120.062C495.476 131.327 494.174 142.95 489.658 153.485C485.141 164.02 477.61 173.003 467.999 179.317C458.389 185.631 447.124 188.997 435.605 188.996Z" fill="#63D6A9"/>
<path d="M486.585 130.581C486.585 144.023 481.214 156.915 471.653 166.42C462.093 175.925 449.126 181.265 435.605 181.265C422.084 181.265 409.117 175.925 399.556 166.42C389.995 156.915 384.624 144.023 384.624 130.581C384.624 128.975 384.702 127.394 384.849 125.831C386.077 112.858 392.284 100.853 402.181 92.3105C412.078 83.7676 424.904 79.3424 437.997 79.9537C451.089 80.565 463.441 86.166 472.489 95.5935C481.537 105.021 486.585 117.551 486.585 130.581Z" fill="#63D6A9"/>
<path d="M450.786 133.949C449.551 132.334 447.925 131.054 446.06 130.229C443.76 129.265 441.384 128.49 438.957 127.91V114.113C442.688 114.673 446.187 116.259 449.058 118.692L451.875 112.722C450.255 111.287 448.395 110.144 446.38 109.346C444.145 108.446 441.8 107.848 439.407 107.568V100.575H432.883V107.636C430.364 107.918 427.934 108.729 425.754 110.016C423.786 111.174 422.128 112.789 420.924 114.723C419.775 116.611 419.179 118.78 419.205 120.986C419.092 123.376 419.789 125.735 421.183 127.686C422.467 129.375 424.162 130.712 426.108 131.569C428.445 132.561 430.862 133.357 433.332 133.949V147.169C428.93 146.839 424.735 145.175 421.313 142.402L418.496 148.381C420.41 149.953 422.585 151.18 424.925 152.006C427.488 152.918 430.167 153.473 432.883 153.655V160.588H439.407V153.526C443.03 153.133 446.428 151.584 449.093 149.111C450.266 147.992 451.193 146.643 451.815 145.15C452.437 143.656 452.74 142.051 452.705 140.435C452.813 138.12 452.138 135.836 450.786 133.949ZM433.332 126.449C431.743 125.97 430.266 125.182 428.986 124.13C428.479 123.681 428.078 123.127 427.812 122.506C427.546 121.885 427.422 121.213 427.448 120.539C427.401 119.009 427.966 117.523 429.02 116.407C430.189 115.236 431.697 114.458 433.332 114.182V126.449ZM443.053 144.73C441.951 145.854 440.515 146.597 438.957 146.852V135.478C440.447 135.875 441.84 136.568 443.053 137.514C443.513 137.904 443.879 138.393 444.122 138.943C444.366 139.493 444.482 140.091 444.462 140.692C444.522 142.167 444.018 143.609 443.053 144.73Z" fill="white"/>
<path d="M292.53 232.605C291.194 232.603 289.897 232.162 288.838 231.352C287.78 230.542 287.02 229.408 286.676 228.124L283.418 215.866C283.011 214.325 283.234 212.686 284.04 211.309C284.846 209.932 286.168 208.929 287.717 208.52L390.491 181.52C392.042 181.118 393.69 181.343 395.075 182.145C396.459 182.948 397.468 184.263 397.88 185.803L400.639 196.189L400.122 196.229C373.764 198.266 348.544 207.767 327.447 223.607L327.297 223.679L294.065 232.407C293.564 232.538 293.048 232.605 292.53 232.605Z" fill="#758ECD"/>
<path d="M275.509 293.156C263.453 291.385 251.923 287.051 241.704 280.449C236.642 277.18 231.955 273.369 227.729 269.085C223.557 264.855 219.566 260.047 217.5 254.413C215.512 249.201 215.614 243.429 217.786 238.29C219.928 233.182 224.02 229.127 229.165 227.014C234.341 224.962 240.594 224.743 245.63 226.99C248.031 228.036 250.108 229.698 251.648 231.806C252.364 232.777 252.894 233.872 253.212 235.034C253.507 236.087 253.534 237.197 253.29 238.263C252.995 239.328 252.474 240.317 251.763 241.165C251.051 242.013 250.166 242.7 249.165 243.179C246.964 244.302 244.579 245.026 242.121 245.315C239.65 245.65 236.1 245.955 234.113 243.983C233.704 243.593 233.382 243.121 233.169 242.599C233.02 242.199 232.969 241.77 233.02 241.347C232.991 241.533 233.14 240.941 233.131 240.964C233.1 241.052 232.964 241.265 233.157 240.938C233.218 240.829 233.285 240.725 233.359 240.626C233.293 240.71 233.149 240.851 233.406 240.609C233.619 240.378 233.893 240.21 234.196 240.124C234.316 240.09 234.437 240.062 234.557 240.03C234.862 239.947 234.254 240.034 234.565 240.024C234.686 240.02 234.807 240.023 234.927 240.018C235.233 240.004 234.626 239.935 234.919 240.008C235.033 240.037 235.145 240.065 235.258 240.1C235.501 240.176 235.085 239.922 235.25 240.112C235.444 240.335 235.047 239.895 235.267 240.111C235.376 240.218 235.48 240.331 235.576 240.45C235.957 240.824 236.472 241.034 237.008 241.034C237.544 241.034 238.059 240.824 238.44 240.45C238.809 240.066 239.015 239.556 239.015 239.026C239.015 238.496 238.809 237.986 238.44 237.602C236.443 235.141 232.498 235.749 230.478 237.829C227.901 240.482 228.921 244.687 231.428 247.002C234.265 249.623 238.284 249.805 241.933 249.365C245.018 249.072 248.024 248.227 250.807 246.872C253.572 245.522 255.735 243.199 256.876 240.354C257.391 238.836 257.576 237.226 257.419 235.631C257.262 234.036 256.765 232.493 255.963 231.103C252.741 225.08 246.068 221.992 239.473 221.457C236.077 221.193 232.663 221.6 229.426 222.657C226.19 223.713 223.197 225.397 220.62 227.61C215.652 232.057 212.593 238.231 212.076 244.856C211.5 251.725 214.181 258.395 218.089 263.939C222.18 269.571 227.063 274.591 232.588 278.846C243.388 287.419 256.057 293.359 269.58 296.191C271.189 296.521 272.806 296.804 274.432 297.039C274.949 297.164 275.495 297.088 275.958 296.826C276.421 296.565 276.766 296.138 276.924 295.633C277.062 295.118 276.992 294.569 276.727 294.106C276.462 293.642 276.025 293.301 275.509 293.156L275.509 293.156Z" fill="#758ECD"/>
<path d="M468.531 205.64C450.867 205.392 433.259 205.837 415.707 206.977C409.708 207.366 404.517 209.474 404.517 213.017C404.517 215.98 409.666 219.45 415.707 219.058C433.251 217.919 450.858 217.474 468.531 217.721C482.938 217.923 482.93 205.842 468.531 205.64Z" fill="#758ECD" fill-opacity="0.4"/>
<path d="M442.424 217.123C440.515 217.123 395.672 217.052 395.672 210.894C395.672 204.736 440.515 204.665 442.424 204.665C444.333 204.665 489.175 204.736 489.175 210.894C489.175 217.052 444.333 217.123 442.424 217.123ZM397.426 210.894C398.653 212.761 415.136 215.405 442.424 215.405C469.711 215.405 486.194 212.761 487.422 210.894C486.195 209.027 469.711 206.384 442.424 206.384C415.136 206.384 398.653 209.027 397.426 210.894V210.894Z" fill="#758ECD"/>
<path d="M584.697 379.01C594.624 378.736 606.978 378.394 616.496 371.481C619.33 369.339 621.659 366.606 623.319 363.474C624.979 360.343 625.93 356.888 626.105 353.353C626.299 347.894 624.316 343.129 620.519 339.94C615.548 335.763 608.289 334.784 600.466 337.069L608.571 278.184L602.621 277.373L593.093 346.601L598.061 344.334C603.822 341.708 611.729 340.371 616.642 344.499C617.849 345.578 618.789 346.92 619.389 348.419C619.99 349.918 620.234 351.534 620.104 353.143C619.958 355.774 619.244 358.343 618.01 360.676C616.776 363.008 615.052 365.049 612.953 366.66C605.547 372.038 595.699 372.732 584.53 373.043L584.697 379.01Z" fill="#758ECD"/>
<path d="M568.247 283.262H535.902V289.233H568.247V283.262Z" fill="#758ECD"/>
<path d="M307.166 260.065C305.726 260.06 304.335 259.546 303.242 258.615C302.149 257.683 301.425 256.395 301.201 254.982L299.226 242.455C298.98 240.88 299.372 239.272 300.317 237.983C301.261 236.695 302.682 235.832 304.266 235.584L409.278 219.225C410.863 218.98 412.48 219.37 413.776 220.309C415.072 221.248 415.94 222.66 416.19 224.235L418.164 236.762C418.411 238.337 418.019 239.945 417.074 241.234C416.129 242.522 414.709 243.385 413.125 243.634L308.112 259.992C307.799 260.04 307.483 260.065 307.166 260.065Z" fill="#758ECD"/>
<path d="M263.707 113.269C288.045 113.269 307.775 93.6541 307.775 69.4578C307.775 45.2615 288.045 25.6465 263.707 25.6465C239.369 25.6465 219.639 45.2615 219.639 69.4578C219.639 93.6541 239.369 113.269 263.707 113.269Z" fill="#63D6A9"/>
<path d="M292.829 259.299C291.244 259.296 289.698 258.813 288.396 257.914C287.094 257.016 286.098 255.744 285.541 254.27L255.157 173.374C251.444 163.453 251.84 152.472 256.26 142.841C260.68 133.21 268.762 125.716 278.733 122.001L303.438 112.83C304.393 112.473 305.41 112.307 306.43 112.343C307.45 112.378 308.453 112.613 309.381 113.035C310.307 113.446 311.141 114.037 311.835 114.772C312.529 115.508 313.068 116.373 313.421 117.318L369.704 222.967C370.07 223.919 370.242 224.935 370.211 225.954C370.18 226.973 369.947 227.976 369.525 228.905C369.103 229.834 368.5 230.671 367.751 231.368C367.003 232.065 366.123 232.607 365.162 232.965L295.547 258.808C294.677 259.132 293.757 259.298 292.829 259.299Z" fill="#758ECD"/>
<path d="M295.943 115.612L351.787 189.856L314 116.392C313.688 115.535 313.209 114.747 312.59 114.074C311.972 113.401 311.226 112.855 310.396 112.469C309.566 112.082 308.667 111.862 307.751 111.821C306.835 111.779 305.919 111.918 305.057 112.229L295.943 115.612Z" fill="#E6E6E6"/>
<path d="M183.663 196.021L270.209 146.379C271.573 145.597 273.079 145.089 274.64 144.885C276.202 144.681 277.788 144.785 279.309 145.191C280.831 145.596 282.256 146.296 283.506 147.249C284.755 148.203 285.803 149.392 286.59 150.748C287.377 152.104 287.888 153.601 288.093 155.154C288.298 156.706 288.194 158.283 287.785 159.796C287.377 161.308 286.674 162.726 285.715 163.967C284.755 165.209 283.56 166.251 282.196 167.034L195.65 216.676C195.012 217.043 194.306 217.281 193.575 217.376C192.844 217.472 192.101 217.423 191.388 217.233C190.676 217.043 190.008 216.716 189.423 216.269C188.838 215.822 188.347 215.266 187.979 214.631L181.605 203.648C180.861 202.366 180.66 200.841 181.045 199.411C181.431 197.981 182.373 196.761 183.663 196.021Z" fill="#63D6A9"/>
<path d="M203.252 178.154C203.362 178.083 203.475 178.015 203.591 177.95L203.591 177.95L275.149 138.046C275.842 137.66 276.604 137.413 277.393 137.32C278.182 137.226 278.981 137.288 279.746 137.502C280.511 137.716 281.225 138.077 281.85 138.566C282.474 139.054 282.995 139.66 283.383 140.349L294.04 159.237C294.429 159.926 294.677 160.684 294.771 161.468C294.865 162.252 294.802 163.047 294.587 163.807C294.372 164.568 294.008 165.278 293.517 165.899C293.026 166.519 292.416 167.037 291.723 167.424L220.165 207.327C218.766 208.106 217.113 208.301 215.569 207.869C214.026 207.437 212.717 206.414 211.931 205.025L201.274 186.136C200.705 185.123 200.442 183.968 200.517 182.81C200.592 181.652 201.001 180.539 201.696 179.607C202.123 179.034 202.65 178.542 203.252 178.154Z" fill="#758ECD"/>
<path d="M638.971 513H1.02892C0.756569 512.999 0.49565 512.891 0.303348 512.699C0.111046 512.508 0.00305176 512.248 0.00305176 511.977C0.00305176 511.706 0.111046 511.447 0.303348 511.255C0.49565 511.063 0.756569 510.955 1.02892 510.954H638.971C639.244 510.954 639.506 511.062 639.699 511.254C639.892 511.446 640 511.706 640 511.977C640 512.248 639.892 512.509 639.699 512.7C639.506 512.892 639.244 513 638.971 513Z" fill="#758ECD"/>
<path d="M278.749 42.9865L282.814 59.1519L276.716 83.4H267.394C267.394 83.4 250.293 59.1519 244.196 85.4206V100.051L229.968 113.71C229.968 113.71 225.903 103.607 213.708 95.524C201.513 87.4413 187.286 40.9659 223.871 30.8625C223.871 30.8625 250.923 0.74038 276.604 8.00207C279.314 8.76851 277.118 14.0288 279.765 15.7075C281.35 16.7128 287.808 13.8184 289.351 15.1964C290.889 16.5704 290.478 19.9911 291.96 21.7695C295.223 25.6844 300.258 28.7672 303.139 34.9039C303.139 34.9039 307.204 36.9245 299.074 38.9452C290.944 40.9659 278.749 42.9865 278.749 42.9865Z" fill="#758ECD"/>
<path d="M197.246 214.274L197.371 214.449L132.286 277.008L135.023 280.85L200.575 217.842C201.755 217.302 202.695 216.321 203.239 215.062C203.783 213.803 203.898 212.342 203.564 210.922C199.474 193.897 184.176 192.305 184.176 192.305L184.117 192.403L117.575 256.363L120.312 260.205L184.897 198.127C197.298 204.546 197.246 214.274 197.246 214.274Z" fill="#758ECD"/>
<path d="M18.1575 330.094C15.4503 325.088 14.4215 319.354 15.2208 313.726C16.0202 308.099 18.606 302.872 22.6016 298.807C40.8623 280.171 84.7496 235.76 97.8654 225.891C114.943 213.042 128.664 225.445 128.965 225.724C129.332 226.059 134.455 231.26 141.545 238.459C153.598 250.696 171.812 269.189 172.618 269.794C175.671 272.533 178.122 275.87 179.818 279.595C181.513 283.32 182.416 287.353 182.471 291.441C182.546 295.644 181.76 299.819 180.162 303.711C178.563 307.603 176.186 311.131 173.173 314.081L105.107 380.492C100.94 384.572 95.4563 387.058 89.6248 387.511C83.7933 387.964 77.9883 386.355 73.2339 382.967C55.2666 370.19 30.0277 350.843 18.3485 330.434C18.2843 330.322 18.22 330.207 18.1575 330.094Z" fill="#63D3A9"/>
<path d="M8.83178 316.645C24.3862 312.374 31.0239 335.856 15.5087 340.264C-0.0449831 344.536 -6.68266 321.053 8.83178 316.645Z" fill="#758ECD"/>
<path d="M71.9093 377.637C87.4637 373.366 94.1013 396.849 78.5862 401.257C63.0325 405.528 56.3949 382.045 71.9093 377.637Z" fill="#758ECD"/>
<path d="M86.7847 376.063L169.454 292.244L111.763 234.654L112.987 233.442L171.884 292.234L171.286 292.841L88.0181 377.266L86.7847 376.063Z" fill="#758ECD"/>
</g>
<defs>
<clipPath id="clip0_17_19">
<rect width="640" height="513" fill="white"/>
</clipPath>
</defs>
</svg>
