<svg width="276" height="157" viewBox="0 0 276 157" fill="none" xmlns="http://www.w3.org/2000/svg">
<g clip-path="url(#clip0_84_2)">
<path d="M182.103 94.1592C178.803 92.4144 171.621 99.5234 166.064 110.038C160.506 120.552 158.676 130.489 161.977 132.234C165.277 133.979 172.459 126.87 178.017 116.356C183.574 105.842 185.404 95.9039 182.103 94.1592Z" fill="#758ECD"/>
<path d="M63.7142 158.549C69.7358 158.549 74.6173 156.718 74.6173 154.46C74.6173 152.202 69.7358 150.372 63.7142 150.372C57.6925 150.372 52.811 152.202 52.811 154.46C52.811 156.718 57.6925 158.549 63.7142 158.549Z" fill="#63D3A9"/>
<path d="M89.8817 158.004C95.9033 158.004 100.785 156.173 100.785 153.915C100.785 151.657 95.9033 149.826 89.8817 149.826C83.86 149.826 78.9785 151.657 78.9785 153.915C78.9785 156.173 83.86 158.004 89.8817 158.004Z" fill="#63D3A9"/>
<path d="M118.049 119.077C128.017 125.564 137.748 128.286 139.784 125.156C141.821 122.027 135.391 114.232 125.423 107.745C115.455 101.259 105.724 98.5367 103.687 101.666C101.651 104.795 108.081 112.59 118.049 119.077Z" fill="#63D3A9"/>
<path d="M114.948 103.845C118.758 80.3667 102.814 58.2451 79.3354 54.4351C55.8571 50.6251 33.7355 66.5694 29.9255 90.0477C26.1155 113.526 42.0598 135.648 65.5381 139.458C89.0164 143.268 111.138 127.323 114.948 103.845Z" fill="#63D3A9"/>
<path d="M65.8948 130.746H52.811V154.188H65.8948V130.746Z" fill="#63D3A9"/>
<path d="M92.0623 130.746H78.9785V154.188H92.0623V130.746Z" fill="#63D3A9"/>
<path d="M73.5268 100.762C81.656 100.762 88.2461 94.1724 88.2461 86.0432C88.2461 77.914 81.656 71.324 73.5268 71.324C65.3976 71.324 58.8076 77.914 58.8076 86.0432C58.8076 94.1724 65.3976 100.762 73.5268 100.762Z" fill="white"/>
<path d="M79.9064 95.8128C82.6162 95.8128 84.8128 93.6162 84.8128 90.9064C84.8128 88.1967 82.6162 86 79.9064 86C77.1967 86 75 88.1967 75 90.9064C75 93.6162 77.1967 95.8128 79.9064 95.8128Z" fill="#3F3D56"/>
<path d="M30.6596 56.895C27.1822 41.3212 38.2983 25.5845 55.4883 21.7461C72.6782 17.9078 89.4325 27.4212 92.91 42.995C96.3874 58.5688 84.995 64.3126 67.8051 68.151C50.6151 71.9893 34.1371 72.4688 30.6596 56.895Z" fill="#E6E6E6"/>
<path d="M35.8292 99.4367C32.3467 98.091 26.0485 105.993 21.7618 117.086C17.4751 128.18 16.8232 138.263 20.3057 139.609C23.7882 140.955 30.0864 133.053 34.3731 121.96C38.6598 110.866 39.3117 100.782 35.8292 99.4367Z" fill="#63D3A9"/>
<path d="M51.2817 112.483C51.2817 116.698 62.135 125.022 74.1783 125.022C86.2215 125.022 97.5134 113.155 97.5134 108.94C97.5134 104.725 86.2215 109.758 74.1783 109.758C62.135 109.758 51.2817 108.268 51.2817 112.483Z" fill="white"/>
<path d="M221.561 154.654C227.583 154.654 232.464 152.823 232.464 150.565C232.464 148.307 227.583 146.476 221.561 146.476C215.54 146.476 210.658 148.307 210.658 150.565C210.658 152.823 215.54 154.654 221.561 154.654Z" fill="#758ECD"/>
<path d="M195.394 154.108C201.415 154.108 206.297 152.278 206.297 150.02C206.297 147.762 201.415 145.931 195.394 145.931C189.372 145.931 184.491 147.762 184.491 150.02C184.491 152.278 189.372 154.108 195.394 154.108Z" fill="#758ECD"/>
<path d="M212.839 136.118C236.624 136.118 255.906 116.836 255.906 93.051C255.906 69.2655 236.624 49.9836 212.839 49.9836C189.053 49.9836 169.771 69.2655 169.771 93.051C169.771 116.836 189.053 136.118 212.839 136.118Z" fill="#758ECD"/>
<path d="M232.465 126.851H219.381V150.292H232.465V126.851Z" fill="#758ECD"/>
<path d="M206.297 126.851H193.213V150.292H206.297V126.851Z" fill="#758ECD"/>
<path d="M202.749 96.867C210.878 96.867 217.468 90.277 217.468 82.1478C217.468 74.0186 210.878 67.4286 202.749 67.4286C194.619 67.4286 188.029 74.0186 188.029 82.1478C188.029 90.277 194.619 96.867 202.749 96.867Z" fill="white"/>
<path d="M199.388 89.3906C201.31 87.4699 201.322 84.3654 199.415 82.4564C197.508 80.5475 194.403 80.5571 192.481 82.4778C190.558 84.3985 190.546 87.5031 192.453 89.412C194.361 91.3209 197.465 91.3114 199.388 89.3906Z" fill="#3F3D56"/>
<path d="M217.47 64.2555C200.28 60.4172 188.888 54.6733 192.366 39.0995C195.843 23.5257 212.597 14.0123 229.787 17.8506C246.977 21.689 258.093 37.4257 254.616 52.9995C251.138 68.5733 234.66 68.0938 217.47 64.2555Z" fill="#63D3A9"/>
<path d="M257.875 125.88C261.483 124.921 261.933 114.826 258.881 103.332C255.828 91.8381 250.428 83.2971 246.819 84.2555C243.211 85.2139 242.761 95.3087 245.813 106.803C248.866 118.297 254.266 126.838 257.875 125.88Z" fill="#758ECD"/>
<path d="M203.082 105.863C195.175 105.863 187.762 100.83 187.762 105.045C187.762 109.26 195.175 121.127 203.082 121.127C210.988 121.127 218.114 112.804 218.114 108.589C218.114 104.373 210.988 105.863 203.082 105.863Z" fill="white"/>
<path d="M127.635 141.617L154.062 155.629C154.793 156.016 155.652 156.104 156.45 155.875C157.248 155.647 157.92 155.119 158.319 154.409L175.619 123.526C176.016 122.814 176.107 121.979 175.872 121.202C175.637 120.425 175.095 119.771 174.365 119.383L147.938 105.371C147.207 104.984 146.348 104.896 145.55 105.125C144.752 105.353 144.08 105.881 143.681 106.591L126.381 137.474C125.984 138.186 125.893 139.021 126.128 139.798C126.363 140.575 126.905 141.229 127.635 141.617ZM174.173 119.725C174.81 120.064 175.283 120.634 175.488 121.312C175.693 121.99 175.614 122.719 175.267 123.339L157.968 154.222C157.62 154.842 157.033 155.302 156.337 155.502C155.64 155.701 154.891 155.624 154.253 155.287L127.827 141.275C127.19 140.936 126.717 140.366 126.512 139.688C126.307 139.011 126.386 138.282 126.733 137.661L144.032 106.778C144.38 106.158 144.967 105.698 145.663 105.498C146.36 105.299 147.109 105.376 147.747 105.713L174.173 119.725Z" fill="#3F3D56"/>
<path d="M155.037 112.236L164.855 117.751C165.319 118.01 165.863 118.07 166.369 117.916C166.875 117.763 167.301 117.409 167.554 116.932L167.758 116.546C168.01 116.068 168.068 115.507 167.919 114.986C167.77 114.464 167.426 114.025 166.963 113.764L157.145 108.249C156.681 107.99 156.137 107.93 155.631 108.084C155.125 108.237 154.699 108.591 154.446 109.068L154.242 109.454C153.99 109.932 153.932 110.493 154.081 111.014C154.23 111.536 154.574 111.975 155.037 112.236V112.236Z" fill="#CCCCCC"/>
<path d="M137.603 130.166L157.289 140.859C157.423 140.932 157.569 140.977 157.72 140.993C157.871 141.01 158.024 140.996 158.17 140.953C158.316 140.91 158.451 140.839 158.57 140.744C158.688 140.649 158.786 140.532 158.859 140.399C158.932 140.266 158.977 140.12 158.993 139.969C159.01 139.818 158.996 139.666 158.953 139.521C158.91 139.376 158.839 139.24 158.743 139.122C158.648 139.004 158.53 138.906 158.397 138.834L138.711 128.141C138.441 127.994 138.125 127.961 137.83 128.047C137.536 128.133 137.288 128.333 137.141 128.601C136.994 128.87 136.96 129.186 137.047 129.479C137.134 129.773 137.334 130.02 137.603 130.166V130.166Z" fill="#CCCCCC"/>
<path d="M135.603 134.999L155.289 144.87C155.423 144.937 155.569 144.979 155.72 144.994C155.871 145.009 156.024 144.996 156.17 144.957C156.316 144.917 156.451 144.852 156.57 144.764C156.688 144.676 156.786 144.568 156.859 144.445C156.932 144.322 156.977 144.187 156.993 144.048C157.01 143.909 156.996 143.769 156.953 143.635C156.91 143.5 156.839 143.375 156.743 143.267C156.648 143.158 156.53 143.067 156.397 143.001L136.711 133.13C136.577 133.063 136.431 133.021 136.28 133.006C136.129 132.991 135.976 133.004 135.83 133.043C135.684 133.083 135.549 133.148 135.43 133.236C135.312 133.324 135.214 133.432 135.141 133.555C135.068 133.678 135.023 133.813 135.007 133.952C134.99 134.091 135.004 134.231 135.047 134.365C135.09 134.5 135.161 134.625 135.257 134.733C135.352 134.842 135.47 134.933 135.603 134.999V134.999Z" fill="#CCCCCC"/>
<path d="M145.632 129.085L155.208 133.865C155.348 133.934 155.501 133.978 155.66 133.994C155.818 134.009 155.978 133.996 156.131 133.955C156.283 133.914 156.426 133.845 156.549 133.754C156.673 133.662 156.776 133.549 156.852 133.421C156.928 133.293 156.976 133.153 156.993 133.008C157.01 132.863 156.996 132.716 156.951 132.577C156.906 132.437 156.831 132.306 156.731 132.193C156.631 132.08 156.508 131.985 156.368 131.915L146.792 127.135C146.652 127.066 146.499 127.022 146.34 127.006C146.182 126.991 146.022 127.004 145.869 127.045C145.717 127.086 145.574 127.155 145.451 127.246C145.327 127.338 145.224 127.451 145.148 127.579C145.072 127.707 145.024 127.847 145.007 127.992C144.99 128.137 145.004 128.284 145.049 128.423C145.094 128.563 145.169 128.694 145.269 128.807C145.369 128.92 145.492 129.015 145.632 129.085V129.085Z" fill="#CCCCCC"/>
<g clip-path="url(#clip1_84_2)">
<path d="M159.478 120.659C159.478 120.659 158.998 119.875 157.792 119.149C156.585 118.422 155.558 118.207 155.558 118.207C155.558 118.207 155.628 117.81 155.492 117.58C155.356 117.351 155.033 117.084 154.654 117.021C154.274 116.957 153.015 117.27 152.93 117.311C152.846 117.352 152.755 117.43 152.751 117.464C152.748 117.499 152.746 119.033 152.746 119.033C152.746 119.033 152.469 119.222 152.128 119.513C151.982 119.638 151.155 120.243 150.697 121.287C150.24 122.331 150.286 123.768 151.334 124.858C152.38 125.945 154.298 127.192 155.92 127.344C157.493 127.493 158.469 126.847 159.128 125.962C159.787 125.076 159.91 124.077 159.91 124.077L159.844 123.188C159.844 123.188 161.433 122.851 161.511 122.789C161.591 122.727 161.573 122.508 161.397 121.962C161.221 121.416 161.051 120.922 160.868 120.711C160.68 120.495 160.396 120.37 160.136 120.415C159.877 120.46 159.478 120.659 159.478 120.659Z" fill="#63D3A9"/>
<path d="M155.312 118.306C155.398 118.464 155.055 118.65 154.87 118.773C154.546 118.99 153.955 119.449 153.372 119.61C152.694 119.797 152.216 119.445 152.216 119.445C152.216 119.445 152.54 119.173 152.632 119.119C152.664 119.056 152.661 118.449 152.678 118.249C152.695 118.048 152.692 117.69 152.745 117.538C152.797 117.386 152.853 117.475 152.888 117.523C152.923 117.572 153.527 118.705 153.527 118.705C153.527 118.705 153.704 118.931 153.831 118.897C153.958 118.864 154.333 118.586 154.591 118.412C154.738 118.313 155.155 118.02 155.312 118.306V118.306Z" fill="#63D3A9"/>
<path d="M153.815 118.936C153.696 119.029 153.516 118.941 153.373 118.8C153.162 118.593 153.113 118.339 153.029 118.133C152.913 117.85 152.727 117.676 152.711 117.591C152.695 117.506 152.775 117.34 152.873 117.441C152.972 117.542 153.112 117.647 153.253 117.945C153.374 118.202 153.454 118.448 153.556 118.609C153.648 118.753 153.933 118.843 153.815 118.936Z" fill="white"/>
<path d="M159.649 122.333C159.643 122.288 159.776 121.53 159.797 121.378C159.818 121.226 159.872 120.805 159.598 120.84C159.324 120.875 159.184 121.566 159.16 122.094C159.136 122.622 159.157 123.136 159.231 123.394C159.274 123.541 159.383 123.774 159.581 123.921C159.697 124.007 159.906 124.137 159.906 124.137C159.906 124.137 159.953 123.946 159.973 123.772C159.98 123.713 159.996 123.573 160.005 123.516C160.028 123.482 160.329 123.361 160.541 123.269C160.658 123.218 161.414 122.86 161.465 122.794C161.515 122.728 161.403 122.702 161.293 122.663C161.183 122.624 160.333 122.539 160.333 122.539L159.649 122.333Z" fill="#63D3A9"/>
<path d="M160.37 122.712C160.08 122.693 159.914 122.705 159.731 122.56C159.585 122.444 159.574 122.328 159.639 122.285C159.704 122.242 159.794 122.324 159.876 122.352C160.065 122.418 160.264 122.402 160.437 122.415C160.675 122.435 160.944 122.432 161.185 122.522C161.388 122.599 161.605 122.734 161.48 122.817C161.354 122.899 161.196 122.783 160.986 122.76C160.777 122.737 160.549 122.724 160.37 122.712V122.712Z" fill="white"/>
<path d="M155.471 122.736C156.059 123.053 156.646 123.952 156.173 124.649C155.699 125.347 154.917 125.052 154.238 124.666C153.601 124.302 153.021 123.603 153.44 122.976C153.82 122.407 154.607 122.271 155.471 122.736Z" fill="white"/>
<path d="M153.117 121.284C152.924 121.577 152.909 121.948 153.188 122.109C153.451 122.261 153.789 122.139 153.982 121.846C154.176 121.552 154.122 121.188 153.887 121.047C153.653 120.906 153.31 120.99 153.117 121.284Z" fill="white"/>
<path d="M156.986 123.641C156.793 123.935 156.794 124.26 157.066 124.431C157.344 124.605 157.668 124.482 157.861 124.189C158.055 123.895 157.993 123.526 157.759 123.385C157.525 123.244 157.18 123.348 156.986 123.641V123.641Z" fill="white"/>
<path d="M154.049 123.272C153.855 123.566 153.753 123.878 153.934 123.992C154.147 124.127 154.361 123.889 154.553 123.597C154.746 123.304 154.818 123.041 154.63 122.935C154.437 122.826 154.242 122.979 154.049 123.272V123.272Z" fill="#63D3A9"/>
<path d="M155.099 123.871C154.906 124.164 154.803 124.477 154.984 124.591C155.197 124.726 155.411 124.488 155.604 124.195C155.796 123.902 155.868 123.64 155.68 123.534C155.487 123.425 155.292 123.577 155.099 123.871V123.871Z" fill="#63D3A9"/>
</g>
</g>
<defs>
<clipPath id="clip0_84_2">
<rect width="276" height="157" fill="white"/>
</clipPath>
<clipPath id="clip1_84_2">
<rect width="10.9157" height="10.7083" fill="white" transform="matrix(-0.856647 -0.515904 -0.549765 0.83532 163.292 120.673)"/>
</clipPath>
</defs>
</svg>
