<svg width="87" height="87" viewBox="0 0 87 87" fill="none" xmlns="http://www.w3.org/2000/svg">
<path d="M25.4747 15.9047C25.4747 15.9047 32.1084 12.4587 43.3369 12.4587C54.5653 12.4587 62.3477 15.2658 62.3477 15.2658C62.3477 15.2658 63.6255 12.2072 65.5355 11.1809C67.4454 10.1545 70.7691 9.65157 73.5762 10.8002C76.3833 11.9489 83.3977 19.4119 83.7851 20.0508C84.1657 20.6897 84.4376 21.6141 84.3084 21.8655C84.1793 22.1238 77.464 32.8221 77.464 32.8221C77.464 32.8221 78.4835 35.2962 79.4759 38.7558C79.8973 40.2375 82.7587 47.9248 81.2294 57.1141C79.7001 66.3035 73.0936 76.1182 61.3282 79.3127C49.59 82.5005 31.3472 83.1394 19.8673 77.396C8.73397 71.8362 5.06366 63.2381 4.5539 54.307C4.04413 45.3759 7.61249 37.8994 7.61249 37.8994L11.9489 31.9861C11.9489 31.9861 2.84108 22.9734 2.5896 22.2122C2.33132 21.4441 3.40522 19.9964 6.97358 16.931C10.5419 13.8656 13.8452 11.1401 15.9862 10.44C18.1884 9.71953 20.6285 10.039 22.1578 11.4459C23.6871 12.8461 25.4747 15.9047 25.4747 15.9047Z" fill="#63D3A9"/>
<path d="M63.5575 16.9922C62.2865 17.733 63.7615 20.4654 64.4479 22.0966C65.6578 24.9649 67.5813 30.6471 70.7622 34.2155C74.4597 38.3615 79.1836 37.913 79.1836 37.913C79.1836 37.913 78.2252 34.6573 77.8446 33.896C77.9057 33.3251 80.5905 29.111 81.3518 27.6429C82.1198 26.1748 83.7103 23.6871 84.0297 22.4093C84.3492 21.1315 83.5811 21.5189 83.1393 21.7092C82.6907 21.8995 73.6985 27.2623 73.6985 27.2623C73.6985 27.2623 71.5303 28.0915 70.8302 27.3234C70.1301 26.5554 68.8523 23.0482 67.894 20.7508C67.3502 19.4458 65.8549 15.6532 63.5575 16.9922Z" fill="#63D3A9"/>
<path d="M70.7691 27.6565C71.1497 28.8052 72.7334 28.9479 74.3102 28.5673C76.6212 28.0099 78.0621 26.4467 79.5234 25.3592C81.5353 23.8774 83.5404 23.4424 84.023 22.9191C84.4987 22.3957 84.6959 20.9072 83.5948 21.1995C82.4937 21.4849 81.1071 21.6277 78.8573 23.1162C76.9202 24.394 75.3094 25.7738 73.9296 26.467C72.679 27.0856 70.3884 26.5214 70.7691 27.6565Z" fill="white"/>
<path d="M16.9922 26.8476C17.2301 26.5622 19.6702 20.7237 20.2003 19.575C20.7237 18.4263 22.2122 15.2658 23.8842 16.6591C25.5563 18.0525 23.456 23.456 21.3014 27.2351C19.1468 31.0141 16.7543 34.5077 15.1298 35.9894C14.1987 36.8391 12.4519 38.0013 10.4876 38.1916C9.33891 38.3072 7.37461 38.3344 7.37461 38.3344C7.37461 38.3344 7.89797 36.8051 8.52328 35.5137C8.73399 35.0719 9.24375 34.0319 9.43406 33.5969C9.43406 33.2639 7.95235 31.1569 6.94641 29.6276C6.38906 28.778 2.92266 23.1162 2.87508 22.4433C2.8275 21.7704 3.6907 22.0627 4.59469 22.253C5.49867 22.4433 11.5343 25.4135 11.5343 25.4135L16.9922 26.8476Z" fill="#63D3A9"/>
<path d="M10.5284 26.4602C12.547 27.5477 13.6005 28.3294 15.4561 28.0847C16.9378 27.8944 17.5155 27.1263 17.2709 26.5554C17.033 25.9845 16.0746 26.1748 15.4017 26.032C13.852 25.699 12.6014 24.7474 11.3848 24.1153C9.71274 23.2521 7.93875 22.1034 5.93367 21.7228C4.24125 21.4034 2.20219 21.4373 2.67797 22.5384C3.15375 23.6395 4.71703 23.49 6.21914 24.2105C7.70766 24.9309 9.28453 25.7941 10.5284 26.4602Z" fill="white"/>
<path d="M43.065 47.1771C37.7566 46.9188 29.9063 50.7183 30.0014 57.5627C30.0966 64.4072 36.6012 65.6374 42.8203 65.7937C48.6588 65.9365 55.5916 63.4964 55.5441 57.3724C55.5101 51.8126 50.861 47.5645 43.065 47.1771Z" fill="white"/>
<path d="M65.1208 46.9392C65.1208 49.7939 63.5916 52.4379 61.0291 52.3903C58.6094 52.3427 56.8898 50.0794 56.8898 47.2247C56.8898 44.37 58.8473 42.0591 61.0291 42.0591C63.2109 42.0591 65.1208 44.0845 65.1208 46.9392Z" fill="white"/>
<path d="M29.0023 47.1295C29.0023 49.9842 27.5681 52.2476 25.0057 52.2951C22.3957 52.3427 20.7712 50.1269 20.7712 47.2723C20.7712 44.4176 22.8035 42.1066 24.9785 42.1066C27.1535 42.1066 29.0023 44.2748 29.0023 47.1295Z" fill="white"/>
<path d="M50.1949 56.883C50.1949 59.7377 49.5084 62.3477 47.8024 62.3817C45.7905 62.4293 45.4099 59.8737 45.4099 57.0258C45.4099 54.1779 46.0828 52.0505 47.8024 52.098C49.5628 52.1456 50.1949 54.0284 50.1949 56.883Z" fill="#63D3A9"/>
<path d="M40.5706 56.6452C40.5706 59.4998 39.8841 62.1098 38.1781 62.1438C36.1662 62.1914 35.7856 59.6358 35.7856 56.7879C35.7856 53.94 36.4584 51.8126 38.1781 51.8602C39.9384 51.9077 40.5706 53.7905 40.5706 56.6452Z" fill="#63D3A9"/>
</svg>
