<svg width="291" height="285" viewBox="0 0 291 285" fill="none" xmlns="http://www.w3.org/2000/svg">
<g clip-path="url(#clip0_71_2)">
<path d="M63.7142 286.549C69.7358 286.549 74.6173 284.718 74.6173 282.46C74.6173 280.202 69.7358 278.372 63.7142 278.372C57.6925 278.372 52.811 280.202 52.811 282.46C52.811 284.718 57.6925 286.549 63.7142 286.549Z" fill="#758ECD"/>
<path d="M89.8817 286.004C95.9033 286.004 100.785 284.173 100.785 281.915C100.785 279.657 95.9033 277.826 89.8817 277.826C83.86 277.826 78.9785 279.657 78.9785 281.915C78.9785 284.173 83.86 286.004 89.8817 286.004Z" fill="#758ECD"/>
<path d="M124.62 217.281C134.923 211.341 141.764 203.904 139.9 200.67C138.035 197.435 128.171 199.628 117.868 205.568C107.564 211.507 100.723 218.944 102.588 222.179C104.453 225.413 114.317 223.221 124.62 217.281Z" fill="#758ECD"/>
<path d="M114.948 231.845C118.758 208.367 102.814 186.245 79.3354 182.435C55.8571 178.625 33.7355 194.569 29.9255 218.048C26.1155 241.526 42.0598 263.648 65.5381 267.458C89.0164 271.268 111.138 255.323 114.948 231.845Z" fill="#758ECD"/>
<path d="M65.8948 258.746H52.811V282.188H65.8948V258.746Z" fill="#758ECD"/>
<path d="M92.0623 258.746H78.9785V282.188H92.0623V258.746Z" fill="#758ECD"/>
<path d="M73.5268 228.762C81.656 228.762 88.2461 222.172 88.2461 214.043C88.2461 205.914 81.656 199.324 73.5268 199.324C65.3976 199.324 58.8076 205.914 58.8076 214.043C58.8076 222.172 65.3976 228.762 73.5268 228.762Z" fill="white"/>
<path d="M73.527 218.95C76.2368 218.95 78.4334 216.753 78.4334 214.043C78.4334 211.333 76.2368 209.137 73.527 209.137C70.8173 209.137 68.6206 211.333 68.6206 214.043C68.6206 216.753 70.8173 218.95 73.527 218.95Z" fill="#3F3D56"/>
<path d="M30.6596 184.895C27.1822 169.321 38.2983 153.585 55.4883 149.746C72.6782 145.908 89.4325 155.421 92.91 170.995C96.3874 186.569 84.995 192.313 67.8051 196.151C50.6151 199.989 34.1371 200.469 30.6596 184.895Z" fill="#E6E6E6"/>
<path d="M43.3846 214.191C44.9845 210.817 37.5706 203.951 26.8252 198.855C16.0798 193.759 6.07199 192.362 4.47208 195.735C2.87218 199.108 10.286 205.974 21.0314 211.071C31.7768 216.167 41.7847 217.564 43.3846 214.191Z" fill="#758ECD"/>
<path d="M51.2817 240.483C51.2817 244.698 62.135 253.022 74.1783 253.022C86.2215 253.022 97.5134 241.155 97.5134 236.94C97.5134 232.725 86.2215 237.758 74.1783 237.758C62.135 237.758 51.2817 236.268 51.2817 240.483Z" fill="white"/>
<path d="M222.609 286.549C228.63 286.549 233.512 284.718 233.512 282.46C233.512 280.202 228.63 278.372 222.609 278.372C216.587 278.372 211.706 280.202 211.706 282.46C211.706 284.718 216.587 286.549 222.609 286.549Z" fill="#758ECD"/>
<path d="M196.441 286.004C202.463 286.004 207.344 284.173 207.344 281.915C207.344 279.657 202.463 277.826 196.441 277.826C190.42 277.826 185.538 279.657 185.538 281.915C185.538 284.173 190.42 286.004 196.441 286.004Z" fill="#758ECD"/>
<path d="M183.735 222.179C185.6 218.944 178.759 211.507 168.456 205.568C158.152 199.628 148.288 197.435 146.424 200.67C144.559 203.904 151.4 211.341 161.703 217.281C172.006 223.221 181.87 225.414 183.735 222.179Z" fill="#758ECD"/>
<path d="M213.886 268.014C237.672 268.014 256.954 248.732 256.954 224.946C256.954 201.161 237.672 181.879 213.886 181.879C190.101 181.879 170.819 201.161 170.819 224.946C170.819 248.732 190.101 268.014 213.886 268.014Z" fill="#758ECD"/>
<path d="M233.512 258.746H220.428V282.188H233.512V258.746Z" fill="#758ECD"/>
<path d="M207.344 258.746H194.261V282.188H207.344V258.746Z" fill="#758ECD"/>
<path d="M203.796 228.762C211.925 228.762 218.515 222.172 218.515 214.043C218.515 205.914 211.925 199.324 203.796 199.324C195.667 199.324 189.077 205.914 189.077 214.043C189.077 222.172 195.667 228.762 203.796 228.762Z" fill="white"/>
<path d="M200.249 215.5C202.172 213.579 202.184 210.474 200.277 208.565C198.37 206.656 195.265 206.666 193.343 208.587C191.42 210.507 191.408 213.612 193.315 215.521C195.222 217.43 198.327 217.42 200.249 215.5Z" fill="#3F3D56"/>
<path d="M218.518 196.151C201.328 192.313 189.935 186.569 193.413 170.995C196.89 155.421 213.645 145.908 230.835 149.746C248.025 153.584 259.141 169.321 255.663 184.895C252.186 200.469 235.708 199.989 218.518 196.151Z" fill="#63D3A9"/>
<path d="M258.922 257.775C262.53 256.817 262.981 246.722 259.928 235.228C256.875 223.733 251.475 215.192 247.867 216.151C244.258 217.109 243.808 227.204 246.861 238.698C249.914 250.193 255.314 258.733 258.922 257.775Z" fill="#758ECD"/>
<path d="M204.129 237.758C196.222 237.758 188.809 232.725 188.809 236.94C188.809 241.155 196.222 253.022 204.129 253.022C212.036 253.022 219.161 244.699 219.161 240.484C219.161 236.269 212.036 237.758 204.129 237.758Z" fill="white"/>
<path d="M148.472 153.539H144.647C141.221 153.535 137.936 152.172 135.514 149.75C133.091 147.327 131.728 144.042 131.724 140.616V137.405C131.724 129.452 133.231 122.793 136.203 117.613C139.805 111.587 144.007 105.941 148.745 100.761C151.891 97.598 154.745 94.1578 157.273 90.4824C159.087 87.627 160.023 84.3022 159.966 80.9199C159.966 72.9419 154.769 69.0634 144.076 69.0634C138.144 69.1305 132.25 70.0151 126.561 71.6924C124.366 72.3187 122.057 72.4272 119.813 72.0094C117.57 71.5916 115.454 70.6588 113.633 69.2844C111.811 67.9101 110.333 66.1317 109.316 64.0893C108.298 62.0468 107.768 59.796 107.768 57.5141V51.0141C107.756 48.216 108.555 45.4743 110.069 43.1213C111.584 40.7684 113.748 38.9052 116.3 37.7578C126.349 33.4694 137.186 31.3375 148.11 31.5C159.555 31.5 169.886 33.4223 178.817 37.2129C187.765 41.0122 194.835 46.3696 199.829 53.1367C204.808 59.8558 207.454 68.0184 207.365 76.3808C207.365 85.3608 204.913 93.1821 200.078 99.6274C195.296 106.007 188.441 112.992 179.702 120.388C175.098 124.217 170.735 128.327 166.639 132.694C163.993 135.544 162.123 139.026 161.208 142.806C160.698 145.812 159.138 148.541 156.806 150.506C154.475 152.471 151.521 153.546 148.472 153.539V153.539Z" fill="#63D3A9"/>
<path d="M146.345 214.311H145.841C139.491 214.306 133.403 211.781 128.915 207.29C124.427 202.799 121.905 196.709 121.905 190.359C121.905 184.01 124.427 177.92 128.915 173.429C133.403 168.938 139.491 166.412 145.841 166.408H146.345C149.492 166.406 152.608 167.024 155.516 168.227C158.424 169.43 161.066 171.194 163.291 173.418C165.517 175.642 167.283 178.283 168.487 181.19C169.692 184.097 170.312 187.213 170.312 190.359C170.312 193.506 169.692 196.622 168.487 199.529C167.283 202.436 165.517 205.077 163.291 207.301C161.066 209.525 158.424 211.289 155.516 212.492C152.608 213.695 149.492 214.313 146.345 214.311Z" fill="#63D3A9"/>
<path d="M51.2203 117.637C54.7919 117.637 57.6872 114.742 57.6872 111.17C57.6872 107.599 54.7919 104.703 51.2203 104.703C47.6487 104.703 44.7534 107.599 44.7534 111.17C44.7534 114.742 47.6487 117.637 51.2203 117.637Z" fill="#F2F2F2"/>
</g>
<defs>
<clipPath id="clip0_71_2">
<rect width="291" height="285" fill="white"/>
</clipPath>
</defs>
</svg>
