<svg width="809" height="519" viewBox="0 0 809 519" fill="none" xmlns="http://www.w3.org/2000/svg">
<g clip-path="url(#clip0_78_60)">
<path d="M168.019 303.31C131.427 267.288 115.973 229.708 124.501 197.494C135.445 156.154 184.066 127.57 257.895 119.073L258.168 121.444C185.366 129.823 137.487 157.765 126.808 198.104C118.508 229.455 133.739 266.214 169.694 301.61L168.019 303.31Z" fill="#F0F0F0"/>
<path d="M521.067 431.177C475.399 431.177 425.771 424.39 376.477 411.34C315.519 395.202 259.627 370.843 214.843 340.897L216.169 338.913C260.737 368.715 316.382 392.962 377.088 409.033C431.947 423.557 487.218 430.286 536.905 428.51L536.991 430.895C531.744 431.083 526.436 431.177 521.067 431.177Z" fill="#F0F0F0"/>
<path d="M625.837 416.169L625.073 413.908C665.917 400.098 691.464 377.853 698.951 349.573C708.467 313.624 687.792 271.907 640.732 232.106C593.432 192.104 525.224 158.912 448.67 138.646L449.281 136.338C526.169 156.694 594.709 190.057 642.272 230.284C690.076 270.713 711.024 313.294 701.258 350.184C693.556 379.274 667.476 402.091 625.837 416.169Z" fill="#F0F0F0"/>
<path d="M250.79 432.174C161.054 392.375 91.905 340.741 56.083 286.781L58.071 285.461C93.6453 339.047 162.431 390.375 251.757 429.993L250.79 432.174Z" fill="#F0F0F0"/>
<path d="M566.296 501.123C557.04 501.123 547.626 500.916 538.054 500.503L538.156 498.119C609.589 501.212 672.616 492.663 720.435 473.393L721.328 475.607C679.614 492.415 626.446 501.123 566.296 501.123Z" fill="#F0F0F0"/>
<path d="M514.229 121.213C499.398 116.384 484.142 111.888 468.886 107.849C381.094 84.6074 294.793 76.3554 219.311 83.9898L219.071 81.6149C294.835 73.9555 381.431 82.2273 469.497 105.542C484.796 109.592 500.095 114.101 514.968 118.944L514.229 121.213Z" fill="#F0F0F0"/>
<path d="M111.936 306.89C75.3443 270.868 59.8897 233.288 68.4179 201.074C79.3622 159.733 127.983 131.15 201.812 122.653L202.085 125.024C129.283 133.402 81.4044 161.344 70.7252 201.684C62.4254 233.035 77.6557 269.794 113.611 305.189L111.936 306.89Z" fill="#F0F0F0"/>
<path d="M464.984 434.756C419.316 434.756 369.689 427.97 320.395 414.92C259.436 398.782 203.544 374.423 158.76 344.477L160.086 342.493C204.654 372.295 260.299 396.542 321.005 412.612C375.865 427.137 431.135 433.866 480.822 432.09L480.908 434.474C475.661 434.663 470.353 434.757 464.984 434.756Z" fill="#F0F0F0"/>
<path d="M569.754 419.749L568.99 417.488C609.834 403.678 635.381 381.432 642.868 353.153C652.385 317.204 631.709 275.486 584.649 235.686C537.349 195.684 469.141 162.492 392.588 142.225L393.198 139.918C470.086 160.273 538.626 193.637 586.189 233.864C633.993 274.293 654.941 316.874 645.175 353.764C637.474 382.854 611.393 405.671 569.754 419.749Z" fill="#F0F0F0"/>
<path d="M194.707 435.754C104.971 395.955 35.822 344.32 0 290.361L1.98799 289.041C37.5624 342.627 106.348 393.955 195.674 433.573L194.707 435.754Z" fill="#F0F0F0"/>
<path d="M510.213 504.703C500.957 504.703 491.543 504.496 481.971 504.083L482.073 501.699C553.507 504.791 616.533 496.243 664.352 476.972L665.245 479.186C623.531 495.995 570.364 504.703 510.213 504.703Z" fill="#F0F0F0"/>
<path d="M458.147 124.793C443.315 119.964 428.059 115.468 412.803 111.429C325.011 88.1871 238.711 79.9351 163.228 87.5695L162.988 85.1946C238.752 77.5352 325.348 85.807 413.414 109.121C428.713 113.172 444.012 117.681 458.886 122.524L458.147 124.793Z" fill="#F0F0F0"/>
<path d="M40.6767 242.969C57.8265 223.741 85.1832 212.021 109.975 219.037C87.1035 235.222 70.6945 258.975 63.6509 286.094C60.9724 296.563 59.0833 308.485 50.3771 314.886C44.96 318.869 37.7822 319.82 31.1203 318.913C24.4581 318.006 18.1587 315.415 11.9444 312.848L10.2722 312.993C15.0799 287.68 23.5269 262.197 40.6767 242.969Z" fill="#F2F2F2"/>
<path d="M109.899 219.572C89.1716 224.59 70.5525 236.012 56.6864 252.215C53.6393 255.65 51.1529 259.544 49.3184 263.754C47.6639 267.912 47.1532 272.437 47.8392 276.86C48.3959 280.996 49.4445 285.163 48.9861 289.362C48.7195 291.509 48.0023 293.574 46.8815 295.424C45.7606 297.273 44.2614 298.865 42.4822 300.095C38.1288 303.274 32.8926 304.699 27.7237 305.914C21.9846 307.264 16.0021 308.575 11.3238 312.39C10.757 312.852 10.0731 311.945 10.6391 311.484C18.7785 304.848 30.0904 305.7 39.0959 300.88C43.298 298.631 46.8478 295.102 47.7109 290.259C48.4656 286.025 47.388 281.727 46.7881 277.544C46.0556 273.24 46.3883 268.821 47.757 264.675C49.3712 260.386 51.7036 256.403 54.6542 252.896C61.171 244.895 68.9052 237.969 77.5736 232.371C87.4313 225.927 98.3187 221.217 109.765 218.444C110.473 218.273 110.603 219.402 109.899 219.572L109.899 219.572Z" fill="white"/>
<path d="M60.844 246.735C58.4414 244.04 57.0751 240.578 56.9892 236.968C56.9033 233.358 58.1033 229.835 60.375 227.029C60.8366 226.462 61.7384 227.153 61.2761 227.72C59.1559 230.33 58.0384 233.611 58.1252 236.973C58.2121 240.334 59.4977 243.554 61.7499 246.05C62.2387 246.594 61.33 247.275 60.844 246.735H60.844Z" fill="white"/>
<path d="M47.2805 274.8C54.6457 275.289 61.9246 272.984 67.6659 268.345C68.2343 267.885 68.9184 268.791 68.3507 269.251C62.3671 274.067 54.7874 276.45 47.1242 275.925C46.3938 275.874 46.5541 274.749 47.2805 274.8Z" fill="white"/>
<path d="M87.6866 227.411C88.3989 228.648 89.4072 229.688 90.621 230.439C91.8347 231.189 93.216 231.627 94.6406 231.712C95.3712 231.753 95.2101 232.877 94.4842 232.836C92.9107 232.735 91.3859 232.25 90.043 231.424C88.7002 230.597 87.5801 229.455 86.7807 228.096C86.6946 227.974 86.6582 227.824 86.6787 227.676C86.6992 227.528 86.7752 227.394 86.8912 227.3C87.0116 227.21 87.1627 227.171 87.3117 227.192C87.4606 227.213 87.5953 227.291 87.6866 227.411V227.411Z" fill="white"/>
<path d="M145.166 298.859C144.709 298.846 144.252 298.833 143.79 298.828C137.645 298.687 131.499 299.046 125.413 299.9C124.941 299.959 124.464 300.025 123.995 300.097C109.353 302.312 95.25 307.226 82.4021 314.589C77.2923 317.524 72.4132 320.843 67.807 324.518C61.446 329.594 54.9528 335.603 47.5057 338.205C46.7318 338.485 45.9413 338.717 45.1387 338.899L10.5787 315.021C10.5274 314.928 10.4703 314.842 10.4186 314.748L8.99512 313.857C9.21944 313.651 9.45653 313.442 9.68085 313.236C9.81048 313.116 9.94784 313.001 10.0774 312.881C10.1663 312.803 10.2556 312.725 10.3313 312.649C10.3607 312.623 10.3906 312.597 10.4147 312.578C10.4904 312.502 10.5687 312.44 10.639 312.372C11.961 311.2 13.2936 310.036 14.6367 308.879C14.6422 308.871 14.6422 308.871 14.6553 308.868C24.9117 300.077 35.9921 292.065 47.9363 285.989C48.2957 285.806 48.6602 285.615 49.0354 285.444C54.4346 282.735 60.046 280.472 65.8138 278.677C68.9752 277.705 72.1839 276.893 75.4274 276.245C83.8113 274.586 92.404 274.257 100.89 275.269C117.807 277.289 133.89 284.696 144.375 297.846C144.643 298.183 144.904 298.514 145.166 298.859Z" fill="#F2F2F2"/>
<path d="M144.786 299.244C125.214 290.771 103.471 288.681 82.6448 293.27C78.1437 294.178 73.814 295.79 69.8149 298.047C65.9904 300.371 62.8579 303.676 60.7431 307.621C58.6973 311.258 57.0259 315.216 54.1315 318.294C52.6265 319.847 50.8102 321.064 48.8016 321.866C46.7931 322.668 44.6377 323.036 42.4769 322.947C37.0869 322.864 32.0481 320.85 27.1891 318.708C21.7941 316.331 16.228 313.776 10.1963 314.004C9.46551 314.032 9.46525 312.896 10.195 312.869C20.689 312.471 29.208 319.962 39.3003 321.535C44.0095 322.269 48.9686 321.589 52.5732 318.242C55.7253 315.315 57.4523 311.235 59.4919 307.534C61.4986 303.656 64.4243 300.329 68.0134 297.842C71.8847 295.39 76.1451 293.613 80.6123 292.59C90.6326 290.125 100.978 289.252 111.27 290.001C123.02 290.791 134.549 293.585 145.357 298.262C146.026 298.552 145.45 299.531 144.786 299.244V299.244Z" fill="white"/>
<path d="M89.264 291.398C88.9685 287.799 89.9618 284.212 92.0666 281.278C94.1714 278.344 97.2506 276.254 100.754 275.381C101.464 275.206 101.768 276.301 101.057 276.475C97.7933 277.282 94.9252 279.23 92.9708 281.966C91.0164 284.702 90.1045 288.047 90.3995 291.396C90.4628 292.124 89.3269 292.121 89.264 291.398Z" fill="white"/>
<path d="M61.5375 305.639C67.1236 310.464 74.3231 313.006 81.7003 312.759C82.4312 312.734 82.4317 313.869 81.7016 313.895C74.0243 314.138 66.5375 311.477 60.7355 306.443C60.1828 305.963 60.9878 305.162 61.5375 305.639V305.639Z" fill="white"/>
<path d="M122.331 292.129C122.155 293.545 122.334 294.983 122.851 296.313C123.368 297.643 124.207 298.824 125.294 299.75C125.852 300.223 125.047 301.024 124.492 300.554C123.296 299.526 122.371 298.22 121.796 296.752C121.222 295.284 121.015 293.697 121.195 292.131C121.2 291.981 121.261 291.84 121.366 291.734C121.472 291.629 121.613 291.567 121.762 291.562C121.913 291.563 122.057 291.623 122.163 291.729C122.27 291.835 122.33 291.979 122.331 292.129H122.331Z" fill="white"/>
<path d="M712.665 400.593C702.975 376.719 681.149 356.487 655.442 354.762C671.543 377.692 679.013 405.579 676.533 433.488C675.537 444.248 673.309 456.111 679.357 465.066C683.121 470.638 689.561 473.946 696.141 475.331C702.72 476.716 709.524 476.393 716.239 476.063L717.766 476.762C721.745 451.306 722.354 424.466 712.665 400.593Z" fill="#F2F2F2"/>
<path d="M655.333 355.291C673.168 366.984 686.865 384 694.479 403.921C696.194 408.18 697.227 412.683 697.54 417.264C697.701 421.737 696.661 426.17 694.528 430.105C692.614 433.813 690.226 437.385 689.246 441.495C688.776 443.606 688.757 445.792 689.191 447.911C689.625 450.03 690.502 452.033 691.764 453.789C694.796 458.246 699.249 461.348 703.708 464.23C708.66 467.43 713.854 470.676 716.978 475.841C717.356 476.466 718.305 475.842 717.927 475.217C712.492 466.232 701.551 463.232 694.69 455.666C691.488 452.136 689.331 447.619 690.145 442.768C690.858 438.526 693.317 434.841 695.288 431.103C697.425 427.295 698.596 423.022 698.701 418.657C698.622 414.075 697.764 409.539 696.164 405.245C692.715 395.519 687.759 386.396 681.476 378.21C674.358 368.828 665.687 360.733 655.839 354.274C655.229 353.875 654.727 354.895 655.333 355.291V355.291Z" fill="white"/>
<path d="M692.405 397.362C695.574 395.631 698.024 392.829 699.318 389.458C700.612 386.087 700.666 382.366 699.47 378.959C699.225 378.271 698.144 378.618 698.389 379.308C699.509 382.478 699.458 385.944 698.247 389.081C697.035 392.218 694.742 394.818 691.782 396.412C691.139 396.76 691.766 397.707 692.405 397.362V397.362Z" fill="white"/>
<path d="M695.747 428.352C688.646 426.338 682.565 421.721 678.717 415.422C678.336 414.797 677.387 415.421 677.767 416.045C681.784 422.592 688.122 427.384 695.516 429.464C696.221 429.662 696.448 428.549 695.747 428.352V428.352Z" fill="white"/>
<path d="M673.619 370.14C672.532 371.065 671.233 371.706 669.837 372.005C668.442 372.304 666.994 372.252 665.624 371.853C664.922 371.647 664.695 372.76 665.393 372.965C666.909 373.399 668.508 373.454 670.05 373.127C671.593 372.8 673.032 372.101 674.242 371.089C674.364 371.004 674.448 370.874 674.479 370.728C674.509 370.582 674.483 370.43 674.405 370.303C674.322 370.178 674.193 370.09 674.045 370.06C673.898 370.029 673.745 370.058 673.619 370.14V370.14Z" fill="white"/>
<path d="M595.469 418.112C595.904 418.254 596.339 418.395 596.776 418.546C602.611 420.478 608.279 422.882 613.724 425.732C614.148 425.946 614.575 426.169 614.993 426.394C628.038 433.401 639.67 442.77 649.295 454.023C653.121 458.504 656.601 463.27 659.704 468.28C663.989 475.198 668.085 483.04 674.224 487.993C674.859 488.517 675.526 489.001 676.22 489.443L716.795 478.57C716.875 478.499 716.958 478.437 717.038 478.366L718.678 478.006C718.536 477.736 718.383 477.46 718.241 477.19C718.159 477.033 718.068 476.879 717.987 476.722C717.929 476.619 717.872 476.515 717.826 476.418C717.807 476.384 717.787 476.349 717.771 476.324C717.725 476.227 717.672 476.142 717.629 476.054C716.778 474.506 715.914 472.962 715.038 471.42C715.035 471.411 715.035 471.411 715.024 471.404C708.319 459.677 700.576 448.407 691.369 438.67C691.092 438.377 690.812 438.075 690.517 437.787C686.342 433.421 681.818 429.404 676.989 425.775C674.338 423.797 671.589 421.954 668.752 420.253C661.413 415.873 653.431 412.675 645.098 410.776C628.487 406.992 610.85 408.563 596.555 417.425C596.189 417.651 595.832 417.876 595.469 418.112Z" fill="#F2F2F2"/>
<path d="M595.698 418.603C616.978 417.201 638.159 422.54 656.232 433.862C660.166 436.23 663.702 439.204 666.71 442.673C669.531 446.147 671.37 450.314 672.036 454.739C672.74 458.853 672.984 463.142 674.676 467.013C675.571 468.982 676.873 470.739 678.495 472.17C680.117 473.6 682.023 474.671 684.089 475.313C689.193 477.047 694.616 476.843 699.912 476.459C705.792 476.033 711.893 475.498 717.497 477.74C718.176 478.012 718.558 476.942 717.88 476.671C708.13 472.769 697.589 476.961 687.555 475.051C682.873 474.16 678.431 471.852 676.161 467.489C674.176 463.673 673.921 459.25 673.244 455.078C672.657 450.751 671.02 446.634 668.475 443.086C665.654 439.475 662.238 436.37 658.375 433.905C649.766 428.216 640.316 423.916 630.371 421.162C619.038 417.957 607.241 416.714 595.489 417.486C594.762 417.535 594.976 418.651 595.698 418.603V418.603Z" fill="white"/>
<path d="M650.627 429.874C652.115 426.584 652.385 422.872 651.389 419.401C650.392 415.931 648.195 412.927 645.189 410.927C644.579 410.524 643.925 411.453 644.535 411.856C647.338 413.713 649.385 416.511 650.306 419.745C651.227 422.979 650.962 426.436 649.558 429.491C649.254 430.155 650.325 430.535 650.627 429.874H650.627Z" fill="white"/>
<path d="M671.954 452.606C665.071 455.273 657.436 455.247 650.571 452.535C649.891 452.266 649.509 453.335 650.188 453.604C657.337 456.413 665.283 456.424 672.439 453.633C673.121 453.366 672.632 452.341 671.954 452.606V452.606Z" fill="white"/>
<path d="M619.238 419.449C618.928 420.842 618.276 422.136 617.342 423.215C616.408 424.294 615.22 425.124 613.886 425.631C613.201 425.889 613.691 426.914 614.371 426.658C615.843 426.091 617.153 425.173 618.188 423.983C619.223 422.793 619.95 421.368 620.307 419.832C620.353 419.69 620.343 419.536 620.279 419.401C620.215 419.267 620.103 419.161 619.964 419.106C619.822 419.056 619.666 419.064 619.531 419.129C619.395 419.193 619.29 419.308 619.238 419.449V419.449Z" fill="white"/>
<path d="M524.682 481.886C529.955 481.886 534.229 477.612 534.229 472.34C534.229 467.068 529.955 462.794 524.682 462.794C519.41 462.794 515.136 467.068 515.136 472.34C515.136 477.612 519.41 481.886 524.682 481.886Z" fill="#FD6584"/>
<path d="M558.496 319.296C563.768 319.296 568.042 315.022 568.042 309.75C568.042 304.478 563.768 300.204 558.496 300.204C553.224 300.204 548.95 304.478 548.95 309.75C548.95 315.022 553.224 319.296 558.496 319.296Z" fill="#E6E6E6"/>
<path d="M380.868 54.5077C386.14 54.5077 390.414 50.2338 390.414 44.9617C390.414 39.6895 386.14 35.4156 380.868 35.4156C375.595 35.4156 371.322 39.6895 371.322 44.9617C371.322 50.2338 375.595 54.5077 380.868 54.5077Z" fill="#E6E6E6"/>
<path d="M180.826 411.146C180.826 413.576 180.906 416.006 181.076 418.416C181.256 421.296 181.566 424.156 181.986 426.996C183.397 436.558 186.095 445.886 190.006 454.726C190.205 455.166 190.405 455.606 190.606 456.046L190.906 456.706C191.006 456.926 191.116 457.146 191.216 457.356C191.356 457.646 191.486 457.926 191.626 458.206C191.796 458.556 191.966 458.906 192.146 459.256C192.166 459.296 192.186 459.346 192.216 459.396C192.366 459.696 192.506 459.986 192.666 460.286C192.695 460.351 192.728 460.414 192.766 460.476C192.936 460.816 193.116 461.166 193.296 461.506C193.496 461.866 193.686 462.236 193.886 462.596C194.366 463.486 194.866 464.366 195.376 465.246C195.526 465.506 195.676 465.766 195.836 466.026C195.976 466.266 196.116 466.506 196.266 466.746C196.366 466.906 196.466 467.076 196.566 467.236C196.726 467.506 196.886 467.766 197.056 468.036C197.426 468.626 197.806 469.216 198.176 469.806H198.186C198.356 470.076 198.536 470.346 198.716 470.606V470.616C199.246 471.416 199.796 472.216 200.346 473.006C200.347 473.006 200.348 473.006 200.349 473.006C200.351 473.007 200.352 473.008 200.353 473.008C200.354 473.009 200.354 473.011 200.355 473.012C200.355 473.013 200.356 473.014 200.356 473.016C200.796 473.656 201.256 474.276 201.706 474.896V474.906C202.006 475.296 202.296 475.696 202.596 476.086C202.836 476.406 203.086 476.736 203.336 477.056C203.386 477.126 203.446 477.186 203.496 477.256V477.266C203.566 477.356 203.636 477.436 203.706 477.526C204.766 478.886 205.859 480.216 206.986 481.516L207.166 481.726C207.226 481.796 207.296 481.866 207.356 481.946C207.456 482.056 207.546 482.166 207.646 482.276C207.736 482.386 207.836 482.496 207.936 482.606C213.809 489.221 220.468 495.095 227.766 500.096C228.736 500.766 229.726 501.416 230.716 502.046C230.966 502.206 231.216 502.366 231.466 502.516C231.536 502.566 231.616 502.616 231.686 502.666C231.826 502.746 231.956 502.826 232.096 502.916C232.226 502.996 232.356 503.076 232.496 503.156C233.026 503.486 233.566 503.806 234.106 504.126C234.236 504.206 234.376 504.286 234.516 504.366C234.646 504.436 234.786 504.516 234.926 504.596C234.926 504.606 234.926 504.606 234.936 504.606H234.946V504.616H234.956C235.626 505.006 236.306 505.386 236.996 505.756C237.366 505.956 237.746 506.166 238.126 506.356C238.986 506.826 239.856 507.276 240.726 507.706C241.036 507.856 241.356 508.006 241.666 508.166C241.926 508.286 242.186 508.416 242.446 508.536C242.526 508.576 242.596 508.606 242.666 508.646C242.886 508.746 243.096 508.846 243.316 508.946C243.556 509.056 243.796 509.166 244.026 509.276C244.296 509.396 244.556 509.516 244.826 509.626C245.826 510.076 246.836 510.506 247.846 510.916C251.465 512.399 255.164 513.681 258.926 514.756C259.096 514.806 259.276 514.856 259.456 514.906C261.066 515.356 262.686 515.766 264.316 516.136C267.166 516.796 270.042 517.336 272.946 517.756H272.966C273.316 517.806 273.656 517.856 274.006 517.906C274.036 517.906 274.066 517.916 274.106 517.916C274.106 517.926 274.106 517.926 274.116 517.916C274.496 517.966 274.886 518.016 275.266 518.066C275.292 518.073 275.319 518.077 275.346 518.076C275.706 518.126 276.076 518.166 276.436 518.206C276.826 518.246 277.216 518.286 277.606 518.326C277.906 518.356 278.206 518.386 278.506 518.416C278.531 518.425 278.559 518.428 278.586 518.426C278.856 518.446 279.126 518.476 279.396 518.496H279.436C279.666 518.516 279.906 518.536 280.136 518.556C282.926 518.776 285.726 518.876 288.566 518.876C291.636 518.876 294.686 518.756 297.696 518.496H297.726C298.376 518.436 299.016 518.376 299.656 518.316C299.826 518.296 299.986 518.286 300.156 518.266C300.186 518.266 300.226 518.256 300.256 518.256C300.306 518.246 300.356 518.246 300.416 518.236C300.443 518.237 300.47 518.233 300.496 518.226C300.716 518.206 300.936 518.176 301.166 518.156L301.916 518.066C302.166 518.036 302.416 517.996 302.666 517.966C302.726 517.956 302.776 517.956 302.836 517.946C303.016 517.926 303.196 517.896 303.376 517.866C303.466 517.856 303.556 517.846 303.636 517.836C303.816 517.806 303.986 517.786 304.166 517.756H304.176C309.663 516.966 315.08 515.745 320.376 514.106C320.656 514.016 320.936 513.936 321.216 513.846C321.226 513.846 321.236 513.836 321.246 513.836C321.326 513.806 321.416 513.786 321.496 513.756C322.246 513.516 322.986 513.266 323.726 513.006C324.746 512.666 325.756 512.296 326.766 511.916C327.036 511.806 327.306 511.706 327.576 511.596C328.126 511.386 328.666 511.166 329.206 510.946C330.126 510.576 331.046 510.186 331.956 509.786C332.806 509.406 333.646 509.026 334.486 508.626C334.506 508.616 334.536 508.616 334.556 508.596C334.746 508.506 334.936 508.416 335.116 508.326H335.126C339.731 506.116 344.172 503.579 348.416 500.736C349.776 499.826 351.116 498.886 352.436 497.916C353.496 497.126 354.536 496.326 355.576 495.506C360.706 491.425 365.456 486.886 369.766 481.946V481.936C370.076 481.596 370.366 481.246 370.666 480.896C370.716 480.846 370.756 480.796 370.796 480.756C370.986 480.526 371.166 480.306 371.356 480.086V480.076C371.606 479.786 371.856 479.486 372.096 479.186C372.156 479.116 372.206 479.056 372.256 478.996V478.986C372.456 478.746 372.646 478.506 372.846 478.256C372.946 478.136 373.036 478.016 373.136 477.896V477.886C373.726 477.146 374.296 476.406 374.866 475.646C375.016 475.446 375.166 475.236 375.326 475.026C376.046 474.056 376.746 473.066 377.426 472.076V472.066C377.686 471.696 377.936 471.316 378.196 470.946C378.446 470.566 378.696 470.186 378.946 469.806C379.196 469.406 379.456 469.016 379.706 468.616L379.736 468.556C379.986 468.176 380.236 467.776 380.476 467.386C380.666 467.066 380.856 466.756 381.046 466.446C381.166 466.236 381.296 466.026 381.416 465.806C381.463 465.738 381.506 465.668 381.546 465.596C381.826 465.106 382.106 464.616 382.386 464.126C382.716 463.556 383.036 462.976 383.356 462.396C383.476 462.156 383.606 461.916 383.736 461.676C383.786 461.596 383.826 461.516 383.866 461.436C384.016 461.156 384.166 460.866 384.306 460.576C384.456 460.296 384.606 460.006 384.756 459.716C384.896 459.436 385.046 459.146 385.186 458.856C385.296 458.636 385.396 458.416 385.506 458.196C385.513 458.178 385.523 458.161 385.536 458.146C385.586 458.036 385.636 457.936 385.676 457.836C385.688 457.821 385.698 457.804 385.706 457.786C385.816 457.566 385.916 457.336 386.026 457.116C386.166 456.826 386.296 456.526 386.436 456.236C386.526 456.036 386.626 455.826 386.716 455.616C386.846 455.326 386.986 455.036 387.106 454.736C387.246 454.436 387.376 454.136 387.506 453.826C387.543 453.751 387.576 453.674 387.606 453.596C387.676 453.456 387.726 453.316 387.786 453.176C387.946 452.806 388.106 452.426 388.256 452.056C388.436 451.636 388.606 451.206 388.766 450.786C388.926 450.396 389.076 449.996 389.226 449.596L389.286 449.456C391.616 443.319 393.383 436.983 394.566 430.526V430.516C395.233 426.829 395.71 423.111 395.996 419.376C396.006 419.166 396.026 418.966 396.036 418.766C396.216 416.236 396.296 413.696 396.296 411.146C396.296 410.016 396.276 408.896 396.246 407.776C395.548 384.352 387.195 361.802 372.466 343.576C372.146 343.176 371.826 342.776 371.496 342.376C371.166 341.976 370.826 341.586 370.496 341.196C359.533 328.358 345.708 318.275 330.134 311.761C314.56 305.247 297.673 302.483 280.835 303.693C263.997 304.902 247.679 310.051 233.196 318.725C218.713 327.398 206.47 339.353 197.456 353.626C196.966 354.406 196.476 355.196 196.006 355.986C195.526 356.786 195.066 357.586 194.606 358.396C185.546 374.499 180.8 392.669 180.826 411.146Z" fill="#F2F2F2"/>
<path d="M284.283 340.679C301.999 345.225 320.154 347.845 338.432 348.495C341.196 348.645 343.966 348.626 346.728 348.438C352.797 347.928 357.995 346.02 363.785 344.978C366.568 344.478 369.669 344.113 372.471 343.573C371.823 342.769 371.164 341.976 370.493 341.192C364.451 341.703 358.315 343.374 352.2 344.15C341.806 345.472 330.16 343.997 322.28 340.36C318.457 338.594 315.528 336.391 311.719 334.618C311.201 334.352 310.639 334.18 310.061 334.111C308.963 334.078 307.878 334.359 306.934 334.922C300.543 338.148 291.263 340.771 282.65 339.328C282.008 339.83 283.228 340.403 284.283 340.679Z" fill="white"/>
<path d="M246.169 352.034C246.09 352.02 246.011 352.009 245.932 351.995C246.263 351.79 246.575 351.555 246.863 351.294L246.169 352.034Z" fill="white"/>
<path d="M194.608 358.4C198.205 358.687 201.821 358.901 205.456 359.042C208.22 359.191 210.991 359.172 213.752 358.986C219.821 358.473 225.02 356.568 230.809 355.525C236.115 354.572 242.563 354.112 245.932 351.995C237.225 350.488 228.203 353.556 219.225 354.698C211.962 355.591 204.6 355.227 197.461 353.623C196.467 355.187 195.516 356.779 194.608 358.4Z" fill="white"/>
<path d="M303.114 275.856C302.464 275.855 301.82 275.724 301.22 275.473C300.325 275.114 299.559 274.492 299.023 273.69C298.487 272.888 298.206 271.943 298.216 270.978V266.091C298.215 265.066 297.808 264.083 297.083 263.358C296.358 262.633 295.375 262.225 294.35 262.224C293.06 262.223 291.823 261.71 290.91 260.797C289.998 259.885 289.485 258.648 289.483 257.358V190.402C289.485 189.112 289.998 187.875 290.91 186.963C291.822 186.051 293.059 185.537 294.35 185.536H516.176C517.467 185.537 518.704 186.05 519.616 186.963C520.528 187.875 521.042 189.112 521.043 190.402V257.358C521.042 258.648 520.528 259.885 519.616 260.797C518.704 261.71 517.467 262.223 516.176 262.224H320.321C319.813 262.223 319.31 262.322 318.84 262.517C318.371 262.711 317.945 262.996 317.586 263.357L306.524 274.419C306.079 274.872 305.549 275.233 304.963 275.479C304.378 275.726 303.749 275.854 303.114 275.856V275.856Z" fill="white"/>
<path d="M303.114 276.856C302.332 276.855 301.558 276.699 300.837 276.397C299.758 275.963 298.835 275.214 298.189 274.247C297.543 273.28 297.204 272.141 297.216 270.978V266.091C297.216 265.331 296.913 264.603 296.376 264.065C295.839 263.528 295.11 263.225 294.35 263.224C292.795 263.222 291.303 262.604 290.204 261.504C289.104 260.404 288.485 258.913 288.483 257.357V190.402C288.485 188.847 289.104 187.356 290.203 186.256C291.303 185.156 292.794 184.538 294.35 184.536H516.176C517.732 184.538 519.223 185.156 520.323 186.256C521.423 187.356 522.041 188.847 522.043 190.402V257.357C522.041 258.913 521.423 260.404 520.323 261.504C519.223 262.604 517.732 263.222 516.176 263.224H320.321C319.944 263.223 319.571 263.297 319.223 263.441C318.875 263.585 318.559 263.797 318.293 264.064L307.231 275.126C306.694 275.672 306.053 276.106 305.346 276.404C304.639 276.701 303.881 276.854 303.114 276.856V276.856ZM294.35 186.536C293.325 186.537 292.342 186.945 291.617 187.67C290.892 188.395 290.484 189.377 290.483 190.402V257.357C290.484 258.382 290.892 259.365 291.617 260.09C292.342 260.815 293.325 261.223 294.35 261.224C295.64 261.226 296.877 261.739 297.79 262.652C298.702 263.564 299.215 264.801 299.216 266.091V270.978C299.217 271.743 299.443 272.49 299.868 273.126C300.293 273.762 300.897 274.257 301.604 274.55C302.31 274.842 303.087 274.919 303.837 274.77C304.587 274.62 305.276 274.252 305.817 273.712L316.879 262.65C317.33 262.197 317.866 261.837 318.457 261.592C319.048 261.348 319.681 261.222 320.321 261.224H516.176C517.202 261.223 518.185 260.815 518.909 260.09C519.634 259.365 520.042 258.382 520.043 257.357V190.402C520.042 189.377 519.634 188.394 518.909 187.669C518.184 186.945 517.201 186.537 516.176 186.536L294.35 186.536Z" fill="#3F3D56"/>
<path d="M497.114 215.848H317.236C316.549 215.848 315.89 215.575 315.404 215.089C314.918 214.604 314.645 213.945 314.645 213.257C314.645 212.57 314.918 211.911 315.404 211.425C315.89 210.94 316.549 210.667 317.236 210.667H497.114C497.801 210.667 498.46 210.94 498.946 211.425C499.432 211.911 499.705 212.57 499.705 213.257C499.705 213.945 499.432 214.604 498.946 215.089C498.46 215.575 497.801 215.848 497.114 215.848Z" fill="#63D3A9"/>
<path d="M496.784 226.855H317.236C316.549 226.855 315.89 226.582 315.404 226.096C314.918 225.61 314.645 224.951 314.645 224.264C314.645 223.577 314.918 222.918 315.404 222.432C315.89 221.946 316.549 221.673 317.236 221.673H496.784C497.471 221.673 498.13 221.946 498.616 222.432C499.102 222.918 499.374 223.577 499.374 224.264C499.374 224.951 499.102 225.61 498.616 226.096C498.13 226.582 497.471 226.855 496.784 226.855V226.855Z" fill="#E6E6E6"/>
<path d="M496.605 237.861H317.236C316.549 237.861 315.89 237.588 315.404 237.103C314.918 236.617 314.645 235.958 314.645 235.271C314.645 234.584 314.918 233.925 315.404 233.439C315.89 232.953 316.549 232.68 317.236 232.68H496.605C497.292 232.68 497.951 232.953 498.437 233.439C498.923 233.925 499.196 234.584 499.196 235.271C499.196 235.958 498.923 236.617 498.437 237.103C497.951 237.588 497.292 237.861 496.605 237.861V237.861Z" fill="#E6E6E6"/>
<path d="M780.386 175.146C780.386 177.576 780.306 180.006 780.136 182.416C779.956 185.296 779.646 188.156 779.226 190.996C777.814 200.558 775.116 209.886 771.206 218.726C771.006 219.166 770.806 219.606 770.606 220.046L770.306 220.706C770.206 220.926 770.096 221.146 769.996 221.356C769.856 221.646 769.726 221.926 769.586 222.206C769.416 222.556 769.246 222.906 769.066 223.256C769.046 223.296 769.026 223.346 768.996 223.396C768.846 223.696 768.706 223.986 768.546 224.286C768.516 224.351 768.483 224.414 768.446 224.476C768.276 224.816 768.096 225.166 767.916 225.506C767.716 225.866 767.526 226.236 767.326 226.596C766.846 227.486 766.346 228.366 765.836 229.246C765.686 229.506 765.536 229.766 765.376 230.026C765.236 230.266 765.096 230.506 764.946 230.746C764.846 230.906 764.746 231.076 764.646 231.236C764.486 231.506 764.326 231.766 764.156 232.036C763.786 232.626 763.406 233.216 763.036 233.806H763.026C762.856 234.076 762.676 234.346 762.496 234.606V234.616C761.966 235.416 761.416 236.216 760.866 237.006C760.864 237.006 760.863 237.006 760.862 237.006C760.86 237.007 760.859 237.008 760.858 237.009C760.858 237.009 760.857 237.011 760.856 237.012C760.856 237.013 760.856 237.014 760.856 237.016C760.416 237.656 759.956 238.276 759.506 238.896V238.906C759.206 239.296 758.916 239.696 758.616 240.086C758.376 240.406 758.126 240.736 757.876 241.056C757.826 241.126 757.766 241.186 757.716 241.256V241.266C757.646 241.356 757.576 241.436 757.506 241.526C756.446 242.886 755.352 244.216 754.226 245.516L754.046 245.726C753.986 245.796 753.916 245.866 753.856 245.946C753.756 246.056 753.666 246.166 753.566 246.276C753.476 246.386 753.376 246.496 753.276 246.606C747.402 253.221 740.743 259.095 733.446 264.096C732.476 264.766 731.486 265.416 730.496 266.046C730.246 266.206 729.996 266.366 729.746 266.516C729.676 266.566 729.596 266.616 729.526 266.666C729.386 266.746 729.256 266.826 729.116 266.916C728.986 266.996 728.856 267.076 728.716 267.156C728.186 267.486 727.646 267.806 727.106 268.126C726.976 268.206 726.836 268.286 726.696 268.366C726.566 268.436 726.426 268.516 726.286 268.596C726.286 268.606 726.286 268.606 726.276 268.606H726.266V268.616H726.256C725.586 269.006 724.906 269.386 724.216 269.756C723.846 269.956 723.466 270.166 723.086 270.356C722.226 270.826 721.356 271.276 720.486 271.706C720.176 271.856 719.856 272.006 719.546 272.166C719.286 272.286 719.026 272.416 718.766 272.536C718.686 272.576 718.616 272.606 718.546 272.646C718.326 272.746 718.116 272.846 717.896 272.946C717.656 273.056 717.416 273.166 717.186 273.276C716.916 273.396 716.656 273.516 716.386 273.626C715.386 274.076 714.376 274.506 713.366 274.916C709.746 276.399 706.047 277.681 702.286 278.756C702.116 278.806 701.936 278.856 701.756 278.906C700.146 279.356 698.525 279.766 696.896 280.136C694.046 280.796 691.169 281.336 688.266 281.756H688.246C687.896 281.806 687.556 281.856 687.206 281.906C687.176 281.906 687.146 281.916 687.106 281.916C687.106 281.926 687.106 281.926 687.096 281.916C686.716 281.966 686.326 282.016 685.946 282.066C685.92 282.073 685.893 282.077 685.866 282.076C685.506 282.126 685.136 282.166 684.776 282.206C684.386 282.246 683.996 282.286 683.606 282.326C683.306 282.356 683.006 282.386 682.706 282.416C682.68 282.425 682.653 282.428 682.626 282.426C682.356 282.446 682.086 282.476 681.816 282.496H681.776C681.546 282.516 681.306 282.536 681.076 282.556C678.286 282.776 675.486 282.876 672.646 282.876C669.576 282.876 666.526 282.756 663.516 282.496H663.486C662.836 282.436 662.196 282.376 661.556 282.316C661.386 282.296 661.226 282.286 661.056 282.266C661.026 282.266 660.986 282.256 660.956 282.256C660.906 282.246 660.856 282.246 660.796 282.236C660.768 282.237 660.741 282.233 660.716 282.226C660.496 282.206 660.276 282.176 660.046 282.156L659.296 282.066C659.046 282.036 658.796 281.996 658.546 281.966C658.486 281.956 658.436 281.956 658.376 281.946C658.196 281.926 658.016 281.896 657.836 281.866C657.746 281.856 657.656 281.846 657.576 281.836C657.396 281.806 657.226 281.786 657.046 281.756H657.036C651.548 280.966 646.131 279.745 640.836 278.106C640.556 278.016 640.276 277.936 639.996 277.846C639.986 277.846 639.976 277.836 639.966 277.836C639.886 277.806 639.796 277.786 639.716 277.756C638.966 277.516 638.226 277.266 637.486 277.006C636.466 276.666 635.456 276.296 634.446 275.916C634.176 275.806 633.906 275.706 633.636 275.596C633.086 275.386 632.546 275.166 632.006 274.946C631.086 274.576 630.166 274.186 629.256 273.786C628.406 273.406 627.566 273.026 626.726 272.626C626.706 272.616 626.676 272.616 626.656 272.596C626.466 272.506 626.276 272.416 626.096 272.326H626.086C621.48 270.116 617.039 267.579 612.796 264.736C611.436 263.826 610.096 262.886 608.776 261.916C607.716 261.126 606.676 260.326 605.636 259.506C600.505 255.425 595.755 250.886 591.446 245.946V245.936C591.136 245.596 590.846 245.246 590.546 244.896C590.496 244.846 590.456 244.796 590.416 244.756C590.226 244.526 590.046 244.306 589.856 244.086V244.076C589.606 243.786 589.356 243.486 589.116 243.186C589.056 243.116 589.006 243.056 588.956 242.996V242.986C588.756 242.746 588.566 242.506 588.366 242.256C588.266 242.136 588.176 242.016 588.076 241.896V241.886C587.486 241.146 586.916 240.406 586.346 239.646C586.196 239.446 586.046 239.236 585.886 239.026C585.166 238.056 584.466 237.066 583.786 236.076V236.066C583.526 235.696 583.276 235.316 583.016 234.946C582.766 234.566 582.516 234.186 582.266 233.806C582.016 233.406 581.756 233.016 581.506 232.616L581.476 232.556C581.226 232.176 580.976 231.776 580.736 231.386C580.546 231.066 580.356 230.756 580.166 230.446C580.046 230.236 579.916 230.026 579.796 229.806C579.749 229.738 579.705 229.668 579.666 229.596C579.386 229.106 579.106 228.616 578.826 228.126C578.496 227.556 578.176 226.976 577.856 226.396C577.736 226.156 577.606 225.916 577.476 225.676C577.426 225.596 577.386 225.516 577.346 225.436C577.196 225.156 577.046 224.866 576.906 224.576C576.756 224.296 576.606 224.006 576.456 223.716C576.316 223.436 576.166 223.146 576.026 222.856C575.916 222.636 575.816 222.416 575.706 222.196C575.698 222.178 575.688 222.161 575.676 222.146C575.626 222.036 575.576 221.936 575.536 221.836C575.523 221.821 575.513 221.804 575.506 221.786C575.396 221.566 575.296 221.336 575.186 221.116C575.046 220.826 574.916 220.526 574.776 220.236C574.686 220.036 574.586 219.826 574.496 219.616C574.366 219.326 574.226 219.036 574.106 218.736C573.966 218.436 573.836 218.136 573.706 217.826C573.668 217.751 573.635 217.674 573.606 217.596C573.536 217.456 573.486 217.316 573.426 217.176C573.266 216.806 573.106 216.426 572.956 216.056C572.776 215.636 572.606 215.206 572.446 214.786C572.286 214.396 572.136 213.996 571.986 213.596L571.926 213.456C569.596 207.319 567.828 200.983 566.646 194.526V194.516C565.978 190.829 565.501 187.111 565.216 183.376C565.206 183.166 565.186 182.966 565.176 182.766C564.996 180.236 564.916 177.696 564.916 175.146C564.916 174.016 564.936 172.896 564.966 171.776C565.664 148.352 574.016 125.802 588.746 107.576C589.066 107.176 589.386 106.776 589.716 106.376C590.046 105.976 590.386 105.586 590.716 105.196C601.678 92.3579 615.503 82.2754 631.077 75.7612C646.651 69.2469 663.538 66.4832 680.376 67.6927C697.214 68.9022 713.532 74.0512 728.015 82.7245C742.498 91.3979 754.741 103.353 763.756 117.626C764.246 118.406 764.736 119.196 765.206 119.986C765.686 120.786 766.146 121.586 766.606 122.396C775.665 138.499 780.412 156.669 780.386 175.146V175.146Z" fill="#F2F2F2"/>
<path d="M676.928 104.679C659.212 109.225 641.057 111.845 622.779 112.495C620.015 112.645 617.245 112.626 614.483 112.438C608.414 111.928 603.216 110.02 597.426 108.978C594.643 108.478 591.542 108.113 588.74 107.573C589.388 106.769 590.047 105.976 590.718 105.192C596.76 105.703 602.896 107.374 609.011 108.15C619.405 109.472 631.051 107.997 638.931 104.359C642.754 102.594 645.683 100.391 649.492 98.6183C650.01 98.3523 650.571 98.1804 651.15 98.1105C652.248 98.0775 653.333 98.359 654.277 98.9218C660.668 102.148 669.948 104.771 678.561 103.328C679.203 103.83 677.983 104.402 676.928 104.679Z" fill="white"/>
<path d="M715.042 116.034C715.121 116.02 715.2 116.009 715.279 115.995C714.948 115.79 714.636 115.555 714.348 115.294L715.042 116.034Z" fill="white"/>
<path d="M766.603 122.4C763.006 122.688 759.39 122.902 755.755 123.042C752.991 123.191 750.221 123.173 747.459 122.986C741.39 122.473 736.191 120.568 730.402 119.525C725.096 118.572 718.648 118.112 715.279 115.995C723.986 114.488 733.008 117.556 741.986 118.698C749.249 119.591 756.611 119.227 763.75 117.623C764.744 119.187 765.695 120.779 766.603 122.4Z" fill="white"/>
<path d="M82.8255 108.146C82.8255 110.576 82.9055 113.006 83.0755 115.416C83.2555 118.296 83.5655 121.156 83.9855 123.996C85.397 133.558 88.0948 142.886 92.0055 151.726C92.2055 152.166 92.4055 152.606 92.6055 153.046L92.9055 153.706C93.0055 153.926 93.1155 154.146 93.2155 154.356C93.3555 154.646 93.4855 154.926 93.6255 155.206C93.7955 155.556 93.9655 155.906 94.1455 156.256C94.1655 156.296 94.1855 156.346 94.2155 156.396C94.3655 156.696 94.5055 156.986 94.6655 157.286C94.6949 157.351 94.7283 157.414 94.7655 157.476C94.9355 157.816 95.1155 158.166 95.2955 158.506C95.4955 158.866 95.6855 159.236 95.8855 159.596C96.3655 160.486 96.8655 161.366 97.3755 162.246C97.5255 162.506 97.6755 162.766 97.8355 163.026C97.9755 163.266 98.1155 163.506 98.2655 163.746C98.3655 163.906 98.4655 164.076 98.5655 164.236C98.7255 164.506 98.8855 164.766 99.0555 165.036C99.4255 165.626 99.8055 166.216 100.176 166.806H100.186C100.356 167.076 100.536 167.346 100.716 167.606V167.616C101.246 168.416 101.796 169.216 102.346 170.006C102.347 170.006 102.348 170.006 102.349 170.006C102.351 170.007 102.352 170.008 102.353 170.008C102.354 170.009 102.354 170.011 102.355 170.012C102.355 170.013 102.356 170.014 102.356 170.016C102.796 170.656 103.256 171.276 103.706 171.896V171.906C104.006 172.296 104.296 172.696 104.596 173.086C104.836 173.406 105.086 173.736 105.336 174.056C105.386 174.126 105.446 174.186 105.496 174.256V174.266C105.566 174.356 105.636 174.436 105.706 174.526C106.766 175.886 107.859 177.216 108.986 178.516L109.166 178.726C109.226 178.796 109.296 178.866 109.356 178.946C109.456 179.056 109.546 179.166 109.646 179.276C109.736 179.386 109.836 179.496 109.936 179.606C115.809 186.221 122.468 192.095 129.766 197.096C130.736 197.766 131.726 198.416 132.716 199.046C132.966 199.206 133.216 199.366 133.466 199.516C133.536 199.566 133.616 199.616 133.686 199.666C133.826 199.746 133.956 199.826 134.096 199.916C134.226 199.996 134.356 200.076 134.496 200.156C135.026 200.486 135.566 200.806 136.106 201.126C136.236 201.206 136.376 201.286 136.516 201.366C136.646 201.436 136.786 201.516 136.926 201.596C136.926 201.606 136.926 201.606 136.936 201.606H136.946V201.616H136.956C137.626 202.006 138.306 202.386 138.996 202.756C139.366 202.956 139.746 203.166 140.126 203.356C140.986 203.826 141.856 204.276 142.726 204.706C143.036 204.856 143.356 205.006 143.666 205.166C143.926 205.286 144.186 205.416 144.446 205.536C144.526 205.576 144.596 205.606 144.666 205.646C144.886 205.746 145.096 205.846 145.316 205.946C145.556 206.056 145.796 206.166 146.026 206.276C146.296 206.396 146.556 206.516 146.826 206.626C147.826 207.076 148.836 207.506 149.846 207.916C153.465 209.399 157.164 210.681 160.926 211.756C161.096 211.806 161.276 211.856 161.456 211.906C163.066 212.356 164.686 212.766 166.316 213.136C169.166 213.796 172.042 214.336 174.946 214.756H174.966C175.316 214.806 175.656 214.856 176.006 214.906C176.036 214.906 176.066 214.916 176.106 214.916C176.106 214.926 176.106 214.926 176.116 214.916C176.496 214.966 176.886 215.016 177.266 215.066C177.292 215.073 177.319 215.077 177.346 215.076C177.706 215.126 178.076 215.166 178.436 215.206C178.826 215.246 179.216 215.286 179.606 215.326C179.906 215.356 180.206 215.386 180.506 215.416C180.531 215.425 180.559 215.428 180.586 215.426C180.856 215.446 181.126 215.476 181.396 215.496H181.436C181.666 215.516 181.906 215.536 182.136 215.556C184.926 215.776 187.726 215.876 190.566 215.876C193.636 215.876 196.686 215.756 199.696 215.496H199.726C200.376 215.436 201.016 215.376 201.656 215.316C201.826 215.296 201.986 215.286 202.156 215.266C202.186 215.266 202.226 215.256 202.256 215.256C202.306 215.246 202.356 215.246 202.416 215.236C202.443 215.237 202.47 215.233 202.496 215.226C202.716 215.206 202.936 215.176 203.166 215.156L203.916 215.066C204.166 215.036 204.416 214.996 204.666 214.966C204.726 214.956 204.776 214.956 204.836 214.946C205.016 214.926 205.196 214.896 205.376 214.866C205.466 214.856 205.556 214.846 205.636 214.836C205.816 214.806 205.986 214.786 206.166 214.756H206.176C211.663 213.966 217.08 212.745 222.376 211.106C222.656 211.016 222.936 210.936 223.216 210.846C223.226 210.846 223.236 210.836 223.246 210.836C223.326 210.806 223.416 210.786 223.496 210.756C224.246 210.516 224.986 210.266 225.726 210.006C226.746 209.666 227.756 209.296 228.766 208.916C229.036 208.806 229.306 208.706 229.576 208.596C230.126 208.386 230.666 208.166 231.206 207.946C232.126 207.576 233.046 207.186 233.956 206.786C234.806 206.406 235.646 206.026 236.486 205.626C236.506 205.616 236.536 205.616 236.556 205.596C236.746 205.506 236.936 205.416 237.116 205.326H237.126C241.731 203.116 246.172 200.579 250.416 197.736C251.776 196.826 253.116 195.886 254.436 194.916C255.496 194.126 256.536 193.326 257.576 192.506C262.706 188.425 267.456 183.886 271.766 178.946V178.936C272.076 178.596 272.366 178.246 272.666 177.896C272.716 177.846 272.756 177.796 272.796 177.756C272.986 177.526 273.166 177.306 273.356 177.086V177.076C273.606 176.786 273.856 176.486 274.096 176.186C274.156 176.116 274.206 176.056 274.256 175.996V175.986C274.456 175.746 274.646 175.506 274.846 175.256C274.946 175.136 275.036 175.016 275.136 174.896V174.886C275.726 174.146 276.296 173.406 276.866 172.646C277.016 172.446 277.166 172.236 277.326 172.026C278.046 171.056 278.746 170.066 279.426 169.076V169.066C279.686 168.696 279.936 168.316 280.196 167.946C280.446 167.566 280.696 167.186 280.946 166.806C281.196 166.406 281.456 166.016 281.706 165.616L281.736 165.556C281.986 165.176 282.236 164.776 282.476 164.386C282.666 164.066 282.856 163.756 283.046 163.446C283.166 163.236 283.296 163.026 283.416 162.806C283.462 162.738 283.506 162.668 283.546 162.596C283.826 162.106 284.106 161.616 284.386 161.126C284.716 160.556 285.036 159.976 285.356 159.396C285.476 159.156 285.606 158.916 285.736 158.676C285.786 158.596 285.826 158.516 285.866 158.436C286.016 158.156 286.166 157.866 286.306 157.576C286.456 157.296 286.606 157.006 286.756 156.716C286.896 156.436 287.046 156.146 287.186 155.856C287.296 155.636 287.396 155.416 287.506 155.196C287.513 155.178 287.523 155.161 287.536 155.146C287.586 155.036 287.636 154.936 287.676 154.836C287.688 154.821 287.698 154.804 287.706 154.786C287.816 154.566 287.916 154.336 288.026 154.116C288.166 153.826 288.296 153.526 288.436 153.236C288.526 153.036 288.626 152.826 288.716 152.616C288.846 152.326 288.986 152.036 289.106 151.736C289.246 151.436 289.376 151.136 289.506 150.826C289.543 150.751 289.576 150.674 289.606 150.596C289.676 150.456 289.726 150.316 289.786 150.176C289.946 149.806 290.106 149.426 290.256 149.056C290.436 148.636 290.606 148.206 290.766 147.786C290.926 147.396 291.076 146.996 291.226 146.596L291.286 146.456C293.616 140.319 295.383 133.983 296.566 127.526V127.516C297.233 123.829 297.71 120.111 297.996 116.376C298.006 116.166 298.026 115.966 298.036 115.766C298.216 113.236 298.296 110.696 298.296 108.146C298.296 107.016 298.276 105.896 298.246 104.776C297.548 81.3521 289.195 58.8021 274.466 40.5757C274.146 40.1757 273.826 39.7757 273.496 39.3757C273.166 38.9757 272.826 38.5857 272.496 38.1957C261.533 25.3579 247.708 15.2754 232.134 8.76118C216.56 2.24693 199.673 -0.516818 182.835 0.692712C165.997 1.90224 149.679 7.0512 135.196 15.7245C120.713 24.3979 108.47 36.3528 99.4556 50.6257C98.9656 51.4057 98.4756 52.1957 98.0056 52.9858C97.5256 53.7858 97.0656 54.5858 96.6056 55.3958C87.5462 71.499 82.7996 89.6691 82.8255 108.146V108.146Z" fill="#F2F2F2"/>
<path d="M186.283 37.6792C203.999 42.225 222.154 44.8453 240.432 45.4945C243.196 45.6451 245.966 45.6262 248.728 45.4381C254.797 44.9276 259.995 43.0202 265.785 41.9778C268.568 41.4781 271.669 41.1127 274.471 40.5727C273.823 39.7694 273.164 38.9759 272.493 38.1924C266.451 38.7028 260.315 40.3739 254.2 41.1503C243.806 42.4721 232.16 40.9971 224.28 37.3595C220.457 35.5944 217.528 33.3914 213.719 31.6183C213.201 31.3523 212.639 31.1804 212.061 31.1105C210.963 31.0775 209.878 31.359 208.934 31.9218C202.543 35.1484 193.263 37.7705 184.65 36.3279C184.008 36.8302 185.228 37.4025 186.283 37.6792Z" fill="white"/>
<path d="M148.169 49.0342C148.09 49.0198 148.011 49.0086 147.932 48.995C148.263 48.7899 148.575 48.5552 148.863 48.2937L148.169 49.0342Z" fill="white"/>
<path d="M96.6077 55.4C100.205 55.6875 103.821 55.9015 107.456 56.0421C110.22 56.1914 112.991 56.1725 115.752 55.9857C121.821 55.4726 127.02 53.5678 132.809 52.5254C138.115 51.5716 144.563 51.1123 147.932 48.9952C139.225 47.488 130.203 50.5561 121.225 51.6979C113.962 52.591 106.6 52.2274 99.4608 50.6233C98.4668 52.1869 97.5157 53.7791 96.6077 55.4Z" fill="white"/>
<path d="M261.408 162.468C271.711 156.528 278.552 149.091 276.688 145.857C274.823 142.622 264.959 144.815 254.656 150.755C244.352 156.694 237.512 164.131 239.376 167.366C241.241 170.6 251.105 168.407 261.408 162.468Z" fill="#758ECD"/>
<path d="M244.921 180.308C248.731 156.83 232.787 134.709 209.309 130.899C185.83 127.089 163.709 143.033 159.899 166.511C156.089 189.99 172.033 212.111 195.511 215.921C218.99 219.731 241.111 203.787 244.921 180.308Z" fill="#758ECD"/>
<path d="M211.719 175.438C219.848 175.438 226.438 168.848 226.438 160.719C226.438 152.59 219.848 146 211.719 146C203.59 146 197 152.59 197 160.719C197 168.848 203.59 175.438 211.719 175.438Z" fill="white"/>
<path d="M218.906 160.813C221.616 160.813 223.813 158.616 223.813 155.906C223.813 153.197 221.616 151 218.906 151C216.197 151 214 153.197 214 155.906C214 158.616 216.197 160.813 218.906 160.813Z" fill="#3F3D56"/>
<path d="M158.637 131.999C155.159 116.426 166.275 100.689 183.465 96.8506C200.655 93.0123 217.41 102.526 220.887 118.1C224.364 133.673 212.972 139.417 195.782 143.255C178.592 147.094 162.114 147.573 158.637 131.999Z" fill="#E6E6E6"/>
<path d="M169.809 173.564C171.409 170.19 163.995 163.324 153.25 158.228C142.505 153.131 132.497 151.735 130.897 155.108C129.297 158.481 136.711 165.347 147.456 170.444C158.202 175.54 168.21 176.937 169.809 173.564Z" fill="#758ECD"/>
<path d="M189 188.226C189 192.441 199.853 200.765 211.897 200.765C223.94 200.765 235.232 188.898 235.232 184.683C235.232 180.467 223.94 185.5 211.897 185.5C199.853 185.5 189 184.011 189 188.226Z" fill="white"/>
<path d="M242.532 486.349C246.141 485.395 246.605 475.301 243.568 463.803C240.531 452.304 235.142 443.756 231.532 444.709C227.923 445.663 227.459 455.757 230.496 467.255C233.533 478.754 238.922 487.302 242.532 486.349Z" fill="#758ECD"/>
<path d="M285.839 522.118C309.624 522.118 328.906 502.836 328.906 479.051C328.906 455.266 309.624 435.984 285.839 435.984C262.053 435.984 242.771 455.266 242.771 479.051C242.771 502.836 262.053 522.118 285.839 522.118Z" fill="#758ECD"/>
<path d="M305.465 512.851H292.381V536.292H305.465V512.851Z" fill="#758ECD"/>
<path d="M279.297 512.851H266.213V536.292H279.297V512.851Z" fill="#758ECD"/>
<path d="M283.719 485.438C291.848 485.438 298.438 478.848 298.438 470.719C298.438 462.59 291.848 456 283.719 456C275.59 456 269 462.59 269 470.719C269 478.848 275.59 485.438 283.719 485.438Z" fill="white"/>
<path d="M289.388 467.391C291.31 465.47 291.322 462.365 289.415 460.456C287.508 458.547 284.403 458.557 282.481 460.478C280.558 462.399 280.546 465.503 282.453 467.412C284.361 469.321 287.465 469.311 289.388 467.391Z" fill="#3F3D56"/>
<path d="M283.085 450.074C265.527 448.677 253.443 444.583 254.709 428.676C255.975 412.768 271.234 401.006 288.792 402.403C306.35 403.8 319.557 417.828 318.292 433.735C317.026 449.642 300.643 451.471 283.085 450.074Z" fill="#63D3A9"/>
<path d="M345.79 445.943C342.61 443.986 334.979 450.61 328.746 460.739C322.513 470.867 320.038 480.664 323.217 482.621C326.397 484.578 334.027 477.953 340.261 467.825C346.494 457.697 348.969 447.9 345.79 445.943Z" fill="#758ECD"/>
<path d="M284.32 492.5C276.413 492.5 269 487.468 269 491.683C269 495.898 276.413 507.765 284.32 507.765C292.227 507.765 299.352 499.441 299.352 495.226C299.352 491.011 292.227 492.5 284.32 492.5Z" fill="white"/>
<path d="M652.624 169.744C652.624 169.744 660.859 165.466 674.797 165.466C688.736 165.466 698.397 168.951 698.397 168.951C698.397 168.951 699.983 165.154 702.354 163.88C704.725 162.606 708.851 161.981 712.336 163.407C715.821 164.833 724.528 174.097 725.009 174.891C725.481 175.684 725.819 176.831 725.659 177.143C725.498 177.464 717.162 190.745 717.162 190.745C717.162 190.745 718.428 193.816 719.66 198.111C720.183 199.95 723.735 209.493 721.836 220.9C719.938 232.308 711.737 244.492 697.131 248.457C682.56 252.414 659.914 253.207 645.663 246.078C631.842 239.176 627.286 228.502 626.653 217.416C626.02 206.329 630.45 197.047 630.45 197.047L635.833 189.707C635.833 189.707 624.527 178.519 624.215 177.574C623.894 176.62 625.227 174.823 629.657 171.018C634.086 167.212 638.187 163.829 640.845 162.96C643.579 162.066 646.608 162.462 648.506 164.209C650.405 165.947 652.624 169.744 652.624 169.744Z" fill="#63D3A9"/>
<path d="M699.899 171.094C698.321 172.013 700.152 175.405 701.004 177.43C702.506 180.991 704.894 188.045 708.843 192.474C713.433 197.621 719.297 197.064 719.297 197.064C719.297 197.064 718.107 193.023 717.635 192.078C717.711 191.369 721.043 186.138 721.988 184.315C722.942 182.493 724.916 179.405 725.313 177.818C725.709 176.232 724.756 176.713 724.207 176.949C723.651 177.186 712.488 183.843 712.488 183.843C712.488 183.843 709.796 184.872 708.927 183.919C708.058 182.965 706.472 178.612 705.282 175.76C704.607 174.14 702.751 169.432 699.899 171.094V171.094Z" fill="#63D3A9"/>
<path d="M708.851 184.332C709.324 185.758 711.29 185.935 713.247 185.463C716.116 184.771 717.905 182.83 719.719 181.48C722.216 179.641 724.705 179.101 725.304 178.451C725.895 177.802 726.14 175.954 724.773 176.317C723.406 176.671 721.685 176.848 718.892 178.696C716.487 180.282 714.487 181.995 712.775 182.856C711.222 183.623 708.379 182.923 708.851 184.332Z" fill="white"/>
<path d="M642.094 183.328C642.389 182.974 645.418 175.726 646.076 174.3C646.726 172.874 648.574 168.951 650.649 170.68C652.725 172.41 650.118 179.118 647.443 183.809C644.768 188.5 641.798 192.837 639.782 194.677C638.626 195.731 636.457 197.174 634.019 197.41C632.593 197.554 630.155 197.588 630.155 197.588C630.155 197.588 630.804 195.689 631.581 194.086C631.842 193.537 632.475 192.247 632.711 191.707C632.711 191.293 630.872 188.677 629.623 186.779C628.931 185.724 624.628 178.696 624.569 177.861C624.51 177.025 625.581 177.388 626.704 177.624C627.826 177.861 635.318 181.548 635.318 181.548L642.094 183.328Z" fill="#63D3A9"/>
<path d="M634.07 182.847C636.576 184.197 637.883 185.167 640.187 184.864C642.026 184.627 642.743 183.674 642.44 182.965C642.144 182.257 640.955 182.493 640.119 182.316C638.196 181.902 636.643 180.721 635.133 179.936C633.057 178.865 630.855 177.439 628.366 176.966C626.265 176.57 623.734 176.612 624.324 177.979C624.915 179.346 626.856 179.16 628.72 180.054C630.568 180.949 632.526 182.02 634.07 182.847V182.847Z" fill="white"/>
<path d="M674.46 208.565C667.87 208.244 658.125 212.961 658.243 221.457C658.361 229.954 666.436 231.481 674.156 231.675C681.404 231.852 690.01 228.823 689.951 221.221C689.909 214.319 684.138 209.046 674.46 208.565Z" fill="white"/>
<path d="M701.437 209.346C700.669 212.806 699.304 210.194 696.212 209.446C693.292 208.737 690.617 210.936 691.386 207.477C692.154 204.017 694.856 201.913 697.5 202.5C700.144 203.087 702.206 205.887 701.437 209.346Z" fill="white"/>
<path d="M657.333 206.963C658.348 210.358 656.006 208.858 652.975 209.825C649.888 210.809 648.608 213.454 647.594 210.059C646.579 206.663 648.241 203.412 650.828 202.639C653.415 201.866 656.318 203.568 657.333 206.963Z" fill="white"/>
<path d="M683.311 220.613C683.311 224.157 682.459 227.397 680.341 227.439C677.843 227.498 677.371 224.326 677.371 220.791C677.371 217.255 678.206 214.614 680.341 214.673C682.526 214.733 683.311 217.07 683.311 220.613V220.613Z" fill="#63D3A9"/>
<path d="M671.363 220.318C671.363 223.862 670.511 227.102 668.393 227.144C665.896 227.203 665.423 224.031 665.423 220.495C665.423 216.96 666.259 214.319 668.393 214.378C670.579 214.437 671.363 216.774 671.363 220.318V220.318Z" fill="#63D3A9"/>
<path d="M651.5 236.423C651.5 239.507 663.034 247 675.277 247C687.52 247 698 236.585 698 233.5C698 230.415 687.52 236.423 675.277 236.423C663.034 236.423 651.5 233.338 651.5 236.423Z" fill="white"/>
<path d="M717.511 254.399C716.926 251.998 710.957 251.39 704.18 253.042C697.402 254.694 692.383 257.98 692.968 260.382C693.554 262.783 699.522 263.391 706.3 261.739C713.077 260.087 718.096 256.801 717.511 254.399Z" fill="#63D3A9"/>
<path d="M647.946 257.622C649.003 255.295 644.727 251.079 638.397 248.205C632.066 245.33 626.078 244.886 625.021 247.213C623.965 249.54 628.24 253.756 634.571 256.631C640.901 259.505 646.89 259.949 647.946 257.622Z" fill="#63D3A9"/>
<path d="M672.085 281.5C654.527 280.103 643.234 273.907 644.5 258C645.766 242.093 654.527 249.103 672.085 250.5C689.643 251.897 699.766 242.093 698.5 258C697.234 273.907 689.643 282.897 672.085 281.5Z" fill="#63D3A9"/>
</g>
<defs>
<clipPath id="clip0_78_60">
<rect width="809" height="519" fill="white"/>
</clipPath>
</defs>
</svg>
