<svg width="242" height="157" viewBox="0 0 242 157" fill="none" xmlns="http://www.w3.org/2000/svg">
<g clip-path="url(#clip0_84_2)">
<path d="M136.585 97.699C136.084 93.9992 126.124 92.2931 114.339 93.8882C102.554 95.4834 93.406 99.7757 93.9068 103.475C94.4075 107.175 104.367 108.881 116.153 107.286C127.938 105.691 137.086 101.399 136.585 97.699Z" fill="#758ECD"/>
<path d="M63.7142 158.549C69.7358 158.549 74.6173 156.718 74.6173 154.46C74.6173 152.202 69.7358 150.372 63.7142 150.372C57.6925 150.372 52.811 152.202 52.811 154.46C52.811 156.718 57.6925 158.549 63.7142 158.549Z" fill="#63D3A9"/>
<path d="M89.8817 158.004C95.9033 158.004 100.785 156.173 100.785 153.915C100.785 151.657 95.9033 149.826 89.8817 149.826C83.86 149.826 78.9785 151.657 78.9785 153.915C78.9785 156.173 83.86 158.004 89.8817 158.004Z" fill="#63D3A9"/>
<path d="M122.118 99.225C133.674 96.4152 142.327 91.1965 141.445 87.5687C140.563 83.9409 130.48 83.2778 118.924 86.0876C107.368 88.8974 98.7151 94.1161 99.5971 97.7439C100.479 101.372 110.562 102.035 122.118 99.225Z" fill="#63D3A9"/>
<path d="M114.948 103.845C118.758 80.3667 102.814 58.2451 79.3354 54.4351C55.8571 50.6251 33.7355 66.5694 29.9255 90.0477C26.1155 113.526 42.0598 135.648 65.5381 139.458C89.0164 143.268 111.138 127.323 114.948 103.845Z" fill="#63D3A9"/>
<path d="M65.8948 130.746H52.811V154.188H65.8948V130.746Z" fill="#63D3A9"/>
<path d="M92.0623 130.746H78.9785V154.188H92.0623V130.746Z" fill="#63D3A9"/>
<path d="M73.5268 100.762C81.656 100.762 88.2461 94.1724 88.2461 86.0432C88.2461 77.914 81.656 71.324 73.5268 71.324C65.3976 71.324 58.8076 77.914 58.8076 86.0432C58.8076 94.1724 65.3976 100.762 73.5268 100.762Z" fill="white"/>
<path d="M73.527 90.9496C76.2368 90.9496 78.4334 88.7529 78.4334 86.0432C78.4334 83.3334 76.2368 81.1367 73.527 81.1367C70.8173 81.1367 68.6206 83.3334 68.6206 86.0432C68.6206 88.7529 70.8173 90.9496 73.527 90.9496Z" fill="#3F3D56"/>
<path d="M30.6596 56.895C27.1822 41.3212 38.2983 25.5845 55.4883 21.7461C72.6782 17.9078 89.4325 27.4212 92.91 42.995C96.3874 58.5688 84.995 64.3126 67.8051 68.151C50.6151 71.9893 34.1371 72.4688 30.6596 56.895Z" fill="#E6E6E6"/>
<path d="M43.3846 86.1907C44.9845 82.8174 37.5706 75.9514 26.8252 70.855C16.0798 65.7586 6.07199 64.3618 4.47208 67.7351C2.87218 71.1084 10.286 77.9744 21.0314 83.0708C31.7768 88.1672 41.7847 89.564 43.3846 86.1907Z" fill="#63D3A9"/>
<path d="M51.2817 112.483C51.2817 116.698 62.135 125.022 74.1783 125.022C86.2215 125.022 97.5134 113.155 97.5134 108.94C97.5134 104.725 86.2215 109.758 74.1783 109.758C62.135 109.758 51.2817 108.268 51.2817 112.483Z" fill="white"/>
<path d="M175.561 156.654C181.583 156.654 186.464 154.823 186.464 152.565C186.464 150.307 181.583 148.476 175.561 148.476C169.54 148.476 164.658 150.307 164.658 152.565C164.658 154.823 169.54 156.654 175.561 156.654Z" fill="#758ECD"/>
<path d="M149.394 156.108C155.415 156.108 160.297 154.278 160.297 152.02C160.297 149.762 155.415 147.931 149.394 147.931C143.372 147.931 138.491 149.762 138.491 152.02C138.491 154.278 143.372 156.108 149.394 156.108Z" fill="#758ECD"/>
<path d="M166.839 138.118C190.624 138.118 209.906 118.836 209.906 95.051C209.906 71.2655 190.624 51.9836 166.839 51.9836C143.053 51.9836 123.771 71.2655 123.771 95.051C123.771 118.836 143.053 138.118 166.839 138.118Z" fill="#758ECD"/>
<path d="M186.465 128.851H173.381V152.292H186.465V128.851Z" fill="#758ECD"/>
<path d="M160.297 128.851H147.213V152.292H160.297V128.851Z" fill="#758ECD"/>
<path d="M156.749 98.867C164.878 98.867 171.468 92.277 171.468 84.1478C171.468 76.0186 164.878 69.4286 156.749 69.4286C148.619 69.4286 142.029 76.0186 142.029 84.1478C142.029 92.277 148.619 98.867 156.749 98.867Z" fill="white"/>
<path d="M160.388 87.3906C162.31 85.4699 162.322 82.3654 160.415 80.4564C158.508 78.5475 155.403 78.5571 153.481 80.4778C151.558 82.3985 151.546 85.5031 153.453 87.412C155.361 89.3209 158.465 89.3114 160.388 87.3906Z" fill="#3F3D56"/>
<path d="M171.47 66.2555C154.28 62.4172 142.888 56.6733 146.366 41.0995C149.843 25.5257 166.597 16.0123 183.787 19.8506C200.977 23.689 212.093 39.4257 208.616 54.9995C205.138 70.5733 188.66 70.0938 171.47 66.2555Z" fill="#63D3A9"/>
<path d="M211.875 127.88C215.483 126.921 215.933 116.826 212.881 105.332C209.828 93.8381 204.428 85.2971 200.819 86.2555C197.211 87.2139 196.761 97.3087 199.813 108.803C202.866 120.297 208.266 128.838 211.875 127.88Z" fill="#758ECD"/>
<path d="M157.082 107.863C149.175 107.863 141.762 102.83 141.762 107.045C141.762 111.26 149.175 123.127 157.082 123.127C164.988 123.127 172.114 114.804 172.114 110.589C172.114 106.373 164.988 107.863 157.082 107.863Z" fill="white"/>
</g>
<defs>
<clipPath id="clip0_84_2">
<rect width="242" height="157" fill="white"/>
</clipPath>
</defs>
</svg>
