<svg width="661" height="556" viewBox="0 0 661 556" fill="none" xmlns="http://www.w3.org/2000/svg">
<path d="M186.026 302H99.9741C97.5949 301.997 95.3138 301.1 93.6315 299.505C91.9491 297.911 91.0027 295.748 91 293.493V195.507C91.0027 193.252 91.9491 191.089 93.6315 189.495C95.3138 187.9 97.5949 187.003 99.9741 187H186.026C188.405 187.003 190.686 187.9 192.369 189.495C194.051 191.089 194.997 193.252 195 195.507V293.493C194.997 295.748 194.051 297.911 192.369 299.505C190.686 301.1 188.405 301.997 186.026 302V302ZM99.9741 188.086C97.8985 188.088 95.9085 188.87 94.4408 190.262C92.9731 191.653 92.1476 193.54 92.1452 195.507V293.493C92.1476 295.46 92.9731 297.347 94.4408 298.738C95.9085 300.13 97.8985 300.912 99.9741 300.914H186.026C188.102 300.912 190.091 300.13 191.559 298.738C193.027 297.347 193.852 295.46 193.855 293.493V195.507C193.852 193.54 193.027 191.653 191.559 190.262C190.091 188.87 188.102 188.088 186.026 188.086H99.9741Z" fill="#3F3D56"/>
<path d="M162.783 195H122.217C120.304 194.998 118.469 194.331 117.116 193.146C115.763 191.961 115.002 190.353 115 188.677V187.323C115.002 185.647 115.763 184.039 117.116 182.854C118.469 181.669 120.304 181.002 122.217 181H162.783C164.696 181.002 166.531 181.669 167.884 182.854C169.237 184.039 169.998 185.647 170 187.323V188.677C169.998 190.353 169.237 191.961 167.884 193.146C166.531 194.331 164.696 194.998 162.783 195V195Z" fill="#CCCCCC"/>
<path d="M182.935 249H104.075C103.54 249.001 103.01 248.898 102.516 248.697C102.022 248.496 101.572 248.202 101.194 247.83C100.815 247.459 100.515 247.017 100.31 246.532C100.105 246.046 100 245.526 100 245C100 244.474 100.105 243.954 100.31 243.468C100.515 242.983 100.815 242.541 101.194 242.17C101.572 241.798 102.022 241.504 102.516 241.303C103.01 241.102 103.54 240.999 104.075 241H182.935C184.013 241.001 185.047 241.423 185.81 242.173C186.572 242.923 187 243.94 187 245C187 246.06 186.572 247.077 185.81 247.827C185.047 248.577 184.013 248.999 182.935 249Z" fill="#63D3A9"/>
<path d="M182.935 265H104.075C103.54 265.001 103.01 264.898 102.516 264.697C102.022 264.496 101.572 264.202 101.194 263.83C100.815 263.459 100.515 263.017 100.31 262.532C100.105 262.046 100 261.526 100 261C100 260.474 100.105 259.954 100.31 259.468C100.515 258.983 100.815 258.541 101.194 258.17C101.572 257.798 102.022 257.504 102.516 257.303C103.01 257.102 103.54 256.999 104.075 257H182.935C184.013 257.001 185.047 257.423 185.81 258.173C186.572 258.923 187 259.94 187 261C187 262.06 186.572 263.077 185.81 263.827C185.047 264.577 184.013 264.999 182.935 265V265Z" fill="#63D3A9"/>
<path d="M160.905 232H124.095C123.557 232.001 123.025 231.91 122.528 231.735C122.031 231.559 121.58 231.301 121.2 230.976C120.819 230.651 120.518 230.265 120.312 229.84C120.106 229.415 120 228.96 120 228.5C120 228.04 120.106 227.585 120.312 227.16C120.518 226.735 120.819 226.349 121.2 226.024C121.58 225.699 122.031 225.441 122.528 225.265C123.025 225.09 123.557 224.999 124.095 225H160.905C161.443 224.999 161.975 225.09 162.472 225.265C162.969 225.441 163.42 225.699 163.8 226.024C164.181 226.349 164.482 226.735 164.688 227.16C164.894 227.585 165 228.04 165 228.5C165 228.96 164.894 229.415 164.688 229.84C164.482 230.265 164.181 230.651 163.8 230.976C163.42 231.301 162.969 231.559 162.472 231.735C161.975 231.91 161.443 232.001 160.905 232V232Z" fill="#63D3A9"/>
<path d="M333.026 182H246.974C244.595 181.997 242.314 181.1 240.631 179.505C238.949 177.911 238.003 175.748 238 173.493V75.5071C238.003 73.2517 238.949 71.0894 240.631 69.4945C242.314 67.8997 244.595 67.0026 246.974 67H333.026C335.405 67.0026 337.686 67.8997 339.369 69.4945C341.051 71.0894 341.997 73.2517 342 75.5071V173.493C341.997 175.748 341.051 177.911 339.369 179.505C337.686 181.1 335.405 181.997 333.026 182V182ZM246.974 68.0856C244.898 68.0878 242.909 68.8704 241.441 70.2618C239.973 71.6531 239.148 73.5395 239.145 75.5071V173.493C239.148 175.46 239.973 177.347 241.441 178.738C242.909 180.13 244.898 180.912 246.974 180.914H333.026C335.102 180.912 337.091 180.13 338.559 178.738C340.027 177.347 340.852 175.46 340.855 173.493V75.5071C340.852 73.5395 340.027 71.6531 338.559 70.2618C337.091 68.8704 335.102 68.0878 333.026 68.0856H246.974Z" fill="#3F3D56"/>
<path d="M310.914 75H271.086C269.207 74.998 267.406 74.2836 266.078 73.0136C264.749 71.7435 264.002 70.0216 264 68.2255V66.7745C264.002 64.9784 264.749 63.2565 266.078 61.9864C267.406 60.7164 269.207 60.002 271.086 60H310.914C312.793 60.002 314.594 60.7164 315.922 61.9864C317.251 63.2565 317.998 64.9784 318 66.7745V68.2255C317.998 70.0216 317.251 71.7435 315.922 73.0136C314.594 74.2836 312.793 74.998 310.914 75V75Z" fill="#CCCCCC"/>
<path d="M328.925 129H250.075C249.54 129.001 249.01 128.898 248.516 128.697C248.021 128.496 247.572 128.202 247.194 127.83C246.815 127.459 246.515 127.017 246.31 126.532C246.105 126.046 246 125.526 246 125C246 124.474 246.105 123.954 246.31 123.468C246.515 122.983 246.815 122.541 247.194 122.17C247.572 121.798 248.021 121.504 248.516 121.303C249.01 121.102 249.54 120.999 250.075 121H328.925C329.46 120.999 329.99 121.102 330.484 121.303C330.979 121.504 331.428 121.798 331.806 122.17C332.185 122.541 332.485 122.983 332.69 123.468C332.895 123.954 333 124.474 333 125C333 125.526 332.895 126.046 332.69 126.532C332.485 127.017 332.185 127.459 331.806 127.83C331.428 128.202 330.979 128.496 330.484 128.697C329.99 128.898 329.46 129.001 328.925 129V129Z" fill="#63D3A9"/>
<path d="M328.93 145H250.07C249.536 145 249.006 144.897 248.513 144.696C248.019 144.495 247.57 144.2 247.192 143.828C246.814 143.457 246.514 143.016 246.31 142.531C246.105 142.045 246 141.525 246 141C246 140.475 246.105 139.955 246.31 139.469C246.514 138.984 246.814 138.543 247.192 138.172C247.57 137.8 248.019 137.505 248.513 137.304C249.006 137.103 249.536 137 250.07 137H328.93C329.464 137 329.994 137.103 330.487 137.304C330.981 137.505 331.43 137.8 331.808 138.172C332.186 138.543 332.486 138.984 332.69 139.469C332.895 139.955 333 140.475 333 141C333 141.525 332.895 142.045 332.69 142.531C332.486 143.016 332.186 143.457 331.808 143.828C331.43 144.2 330.981 144.495 330.487 144.696C329.994 144.897 329.464 145 328.93 145Z" fill="#63D3A9"/>
<path d="M308.91 113H272.095C271.558 113.001 271.025 112.898 270.528 112.697C270.032 112.496 269.58 112.202 269.2 111.83C268.819 111.459 268.518 111.017 268.312 110.532C268.106 110.046 268 109.526 268 109C268 108.474 268.106 107.954 268.312 107.468C268.518 106.983 268.819 106.541 269.2 106.17C269.58 105.798 270.032 105.504 270.528 105.303C271.025 105.102 271.558 104.999 272.095 105H308.91C309.994 105 311.035 105.421 311.802 106.172C312.569 106.922 313 107.939 313 109C313 110.061 312.569 111.078 311.802 111.828C311.035 112.579 309.994 113 308.91 113Z" fill="#63D3A9"/>
<path d="M529.08 401.57L433.417 454.596C430.77 456.059 427.661 456.394 424.772 455.529C421.882 454.663 419.448 452.667 418.004 449.979L355.381 333.106C353.942 330.415 353.612 327.252 354.463 324.313C355.314 321.374 357.277 318.899 359.92 317.43L455.583 264.404C458.23 262.941 461.339 262.606 464.228 263.471C467.118 264.337 469.552 266.333 470.996 269.021L533.619 385.894C535.058 388.585 535.388 391.748 534.537 394.687C533.686 397.626 531.723 400.101 529.08 401.57ZM360.614 318.724C358.308 320.006 356.596 322.166 355.854 324.73C355.111 327.294 355.399 330.052 356.654 332.401L419.277 449.273C420.537 451.618 422.66 453.36 425.181 454.115C427.702 454.87 430.414 454.577 432.723 453.301L528.386 400.276C530.692 398.994 532.404 396.834 533.147 394.27C533.889 391.706 533.601 388.948 532.346 386.599L469.723 269.727C468.463 267.382 466.34 265.64 463.819 264.885C461.298 264.13 458.586 264.423 456.277 265.699L360.614 318.724Z" fill="#3F3D56"/>
<path d="M432.15 290.249L395.68 310.103C393.959 311.037 391.936 311.252 390.057 310.699C388.178 310.146 386.595 308.871 385.655 307.154L384.898 305.765C383.962 304.046 383.748 302.026 384.301 300.149C384.855 298.271 386.131 296.69 387.85 295.751L424.32 275.897C426.041 274.963 428.063 274.748 429.943 275.301C431.822 275.854 433.405 277.129 434.345 278.846L435.102 280.235C436.038 281.954 436.252 283.974 435.699 285.851C435.145 287.729 433.869 289.31 432.15 290.249V290.249Z" fill="#CCCCCC"/>
<path d="M491.833 359.831L421.144 398.492C420.664 398.754 420.138 398.918 419.596 398.976C419.053 399.035 418.505 398.985 417.981 398.83C417.458 398.675 416.97 398.419 416.545 398.075C416.121 397.731 415.768 397.306 415.507 396.826C415.246 396.345 415.081 395.817 415.023 395.273C414.966 394.728 415.015 394.177 415.169 393.652C415.323 393.127 415.579 392.637 415.922 392.211C416.265 391.785 416.688 391.431 417.167 391.169L487.856 352.508C488.824 351.979 489.962 351.857 491.019 352.17C492.076 352.482 492.966 353.203 493.493 354.174C494.021 355.145 494.142 356.287 493.831 357.348C493.519 358.409 492.801 359.302 491.833 359.831V359.831Z" fill="#CCCCCC"/>
<path d="M500.806 375.831L429.221 414.492C428.736 414.754 428.204 414.918 427.654 414.976C427.105 415.035 426.549 414.985 426.019 414.83C425.489 414.675 424.995 414.419 424.565 414.075C424.135 413.731 423.777 413.306 423.513 412.826C423.249 412.345 423.082 411.817 423.024 411.273C422.965 410.728 423.015 410.177 423.171 409.652C423.328 409.127 423.587 408.637 423.934 408.211C424.281 407.785 424.709 407.431 425.194 407.169L496.779 368.508C497.264 368.246 497.796 368.082 498.346 368.024C498.895 367.965 499.451 368.015 499.981 368.17C500.511 368.325 501.005 368.581 501.435 368.925C501.865 369.269 502.223 369.694 502.487 370.174C502.751 370.655 502.918 371.183 502.976 371.727C503.035 372.272 502.985 372.823 502.829 373.348C502.672 373.873 502.413 374.363 502.066 374.789C501.719 375.215 501.291 375.569 500.806 375.831V375.831Z" fill="#CCCCCC"/>
<path d="M463.841 355.04L431.122 373.478C430.644 373.747 430.12 373.916 429.58 373.976C429.039 374.035 428.492 373.984 427.971 373.826C427.449 373.667 426.963 373.403 426.54 373.05C426.117 372.697 425.765 372.261 425.505 371.768C425.245 371.274 425.081 370.732 425.023 370.173C424.966 369.614 425.015 369.049 425.169 368.509C425.322 367.97 425.577 367.467 425.919 367.03C426.26 366.592 426.682 366.229 427.159 365.96L459.878 347.522C460.356 347.253 460.88 347.084 461.42 347.024C461.961 346.965 462.508 347.016 463.029 347.174C463.551 347.333 464.037 347.597 464.46 347.95C464.883 348.303 465.235 348.739 465.495 349.232C465.755 349.726 465.919 350.268 465.977 350.827C466.034 351.386 465.985 351.951 465.831 352.491C465.678 353.03 465.423 353.533 465.081 353.97C464.74 354.408 464.318 354.771 463.841 355.04V355.04Z" fill="#CCCCCC"/>
<path d="M215.267 148.983L175.042 171.014L175.617 171.948L215.841 149.917L215.267 148.983Z" fill="#3F3D56"/>
<path d="M217.026 155L223 146L211 146.024L217.026 155Z" fill="#3F3D56"/>
<path d="M334.588 294C334.523 294 334.458 293.987 334.4 293.962L223.223 245.657C223.126 245.615 223.053 245.542 223.02 245.454C222.986 245.366 222.996 245.271 223.045 245.189C223.095 245.107 223.181 245.045 223.285 245.017C223.389 244.989 223.502 244.996 223.599 245.038L334.777 293.342C334.859 293.378 334.924 293.436 334.963 293.507C335.001 293.578 335.01 293.658 334.988 293.734C334.967 293.81 334.915 293.877 334.843 293.926C334.77 293.974 334.681 294 334.588 294V294Z" fill="#3F3D56"/>
<path d="M327 301L342 300.283L333.863 288L327 301Z" fill="#3F3D56"/>
<path d="M659.475 556H78.5248C78.1204 556 77.7326 555.895 77.4466 555.707C77.1607 555.52 77 555.265 77 555C77 554.735 77.1607 554.48 77.4466 554.293C77.7326 554.105 78.1204 554 78.5248 554H659.475C659.88 554 660.268 554.105 660.553 554.293C660.839 554.48 661 554.735 661 555C661 555.265 660.839 555.52 660.553 555.707C660.268 555.895 659.88 556 659.475 556Z" fill="#3F3D56"/>
<path d="M179 555C189.493 555 198 551.866 198 548C198 544.134 189.493 541 179 541C168.507 541 160 544.134 160 548C160 551.866 168.507 555 179 555Z" fill="#758ECD"/>
<path d="M224 554C234.493 554 243 550.866 243 547C243 543.134 234.493 540 224 540C213.507 540 205 543.134 205 547C205 550.866 213.507 554 224 554Z" fill="#758ECD"/>
<path d="M278.971 418.596C292.242 403.32 299.051 387.611 294.18 383.51C289.308 379.409 274.601 388.468 261.33 403.744C248.059 419.02 241.249 434.728 246.121 438.83C250.993 442.931 265.7 433.872 278.971 418.596Z" fill="#758ECD"/>
<path d="M267.128 462.196C273.669 422.515 246.294 385.126 205.984 378.687C165.674 372.247 127.693 399.195 121.151 438.877C114.61 478.559 141.985 515.947 182.295 522.386C222.606 528.826 260.587 501.878 267.128 462.196Z" fill="#758ECD"/>
<path d="M183 508H160V547H183V508Z" fill="#758ECD"/>
<path d="M228 508H205V547H228V508Z" fill="#758ECD"/>
<path d="M196 457C209.807 457 221 445.807 221 432C221 418.193 209.807 407 196 407C182.193 407 171 418.193 171 432C171 445.807 182.193 457 196 457Z" fill="white"/>
<path d="M206.5 435C211.194 435 215 431.194 215 426.5C215 421.806 211.194 418 206.5 418C201.806 418 198 421.806 198 426.5C198 431.194 201.806 435 206.5 435Z" fill="#3F3D56"/>
<path d="M122.093 383.081C116.125 356.657 135.202 329.956 164.704 323.443C194.205 316.931 222.959 333.072 228.927 359.496C234.895 385.921 215.343 395.666 185.842 402.179C156.34 408.691 128.061 409.505 122.093 383.081Z" fill="#E6E6E6"/>
<path d="M85.4242 390.344C80.7714 394.684 88.3852 410.031 102.43 424.621C116.475 439.211 131.632 447.52 136.285 443.179C140.938 438.839 133.324 423.493 119.279 408.903C105.235 394.313 90.0771 386.004 85.4242 390.344Z" fill="#758ECD"/>
<path d="M158 476.826C158 483.944 176.546 498 197.125 498C217.705 498 237 477.96 237 470.841C237 463.723 217.704 472.222 197.125 472.222C176.546 472.222 158 469.707 158 476.826Z" fill="white"/>
<path d="M576 554C585.941 554 594 550.866 594 547C594 543.134 585.941 540 576 540C566.059 540 558 543.134 558 547C558 550.866 566.059 554 576 554Z" fill="#758ECD"/>
<path d="M532 553C541.941 553 550 549.866 550 546C550 542.134 541.941 539 532 539C522.059 539 514 542.134 514 546C514 549.866 522.059 553 532 553Z" fill="#758ECD"/>
<path d="M504.364 444.519C508.907 440.12 501.366 424.789 487.52 410.277C473.675 395.765 458.769 387.566 454.226 391.965C449.683 396.364 457.224 411.695 471.069 426.207C484.914 440.719 499.821 448.918 504.364 444.519Z" fill="#758ECD"/>
<path d="M561.5 522C601.541 522 634 489.317 634 449C634 408.683 601.541 376 561.5 376C521.459 376 489 408.683 489 449C489 489.317 521.459 522 561.5 522Z" fill="#758ECD"/>
<path d="M594 506H572V546H594V506Z" fill="#758ECD"/>
<path d="M550 506H528V546H550V506Z" fill="#758ECD"/>
<path d="M544 456C557.807 456 569 444.807 569 431C569 417.193 557.807 406 544 406C530.193 406 519 417.193 519 431C519 444.807 530.193 456 544 456Z" fill="white"/>
<path d="M540.481 428.637C543.716 425.377 543.737 420.107 540.528 416.867C537.318 413.627 532.093 413.643 528.858 416.903C525.623 420.163 525.602 425.433 528.812 428.673C532.021 431.914 537.246 431.897 540.481 428.637Z" fill="#3F3D56"/>
<path d="M569.348 400.179C540.388 393.666 521.195 383.921 527.053 357.496C532.912 331.072 561.138 314.931 590.098 321.443C619.058 327.956 637.786 354.656 631.927 381.081C626.069 407.505 598.308 406.691 569.348 400.179Z" fill="#63D3A9"/>
<path d="M637.005 504.813C643.077 503.186 643.835 486.051 638.697 466.541C633.56 447.03 624.472 432.533 618.4 434.16C612.327 435.786 611.569 452.921 616.707 472.432C621.845 491.942 630.932 506.439 637.005 504.813Z" fill="#758ECD"/>
<path d="M544.742 471.222C531.457 471.222 519 462.723 519 469.841C519 476.96 531.456 497 544.742 497C558.027 497 570 482.944 570 475.826C570 468.707 558.027 471.222 544.742 471.222Z" fill="white"/>
<g clip-path="url(#clip0_74_43)">
<path d="M413.808 322.259C413.808 322.259 415.545 319.293 419.913 316.543C424.282 313.793 427.998 312.978 427.998 312.978C427.998 312.978 427.746 311.475 428.238 310.608C428.729 309.741 429.899 308.731 431.273 308.49C432.646 308.25 437.204 309.435 437.511 309.589C437.815 309.744 438.148 310.037 438.159 310.167C438.172 310.299 438.18 316.106 438.18 316.106C438.18 316.106 439.183 316.819 440.416 317.922C440.943 318.396 443.939 320.686 445.595 324.636C447.251 328.586 447.085 334.023 443.29 338.148C439.504 342.263 432.562 346.981 426.689 347.558C420.995 348.122 417.461 345.676 415.075 342.326C412.689 338.976 412.246 335.192 412.246 335.192L412.484 331.829C412.484 331.829 406.733 330.554 406.449 330.319C406.16 330.084 406.223 329.257 406.861 327.191C407.498 325.124 408.116 323.254 408.777 322.457C409.458 321.638 410.485 321.164 411.425 321.337C412.363 321.507 413.808 322.259 413.808 322.259Z" fill="#63D3A9"/>
<path d="M428.891 313.354C428.578 313.953 429.821 314.655 430.488 315.122C431.661 315.941 433.802 317.681 435.913 318.29C438.368 318.998 440.096 317.666 440.096 317.666C440.096 317.666 438.925 316.634 438.591 316.431C438.475 316.194 438.487 313.897 438.424 313.139C438.363 312.38 438.372 311.022 438.184 310.447C437.995 309.871 437.791 310.21 437.666 310.392C437.538 310.576 435.353 314.866 435.353 314.866C435.353 314.866 434.712 315.719 434.252 315.592C433.791 315.465 432.435 314.413 431.499 313.754C430.968 313.379 429.457 312.27 428.891 313.354V313.354Z" fill="#63D3A9"/>
<path d="M434.309 315.736C434.739 316.09 435.39 315.758 435.91 315.223C436.673 314.441 436.851 313.479 437.153 312.698C437.573 311.629 438.246 310.968 438.306 310.647C438.363 310.326 438.075 309.699 437.718 310.082C437.36 310.463 436.855 310.858 436.344 311.989C435.904 312.96 435.615 313.892 435.248 314.5C434.913 315.047 433.883 315.388 434.309 315.736Z" fill="white"/>
<path d="M413.188 328.595C413.21 328.425 412.73 325.556 412.655 324.979C412.577 324.404 412.382 322.81 413.374 322.942C414.365 323.075 414.872 325.692 414.959 327.69C415.047 329.688 414.972 331.633 414.703 332.608C414.548 333.167 414.153 334.047 413.436 334.602C413.017 334.928 412.259 335.42 412.259 335.42C412.259 335.42 412.089 334.697 412.015 334.041C411.989 333.818 411.933 333.288 411.9 333.072C411.819 332.943 410.726 332.486 409.96 332.137C409.535 331.943 406.8 330.589 406.616 330.339C406.433 330.089 406.84 329.991 407.239 329.844C407.637 329.697 410.713 329.374 410.713 329.374L413.188 328.595Z" fill="#63D3A9"/>
<path d="M410.578 330.027C411.63 329.956 412.231 330.002 412.893 329.452C413.423 329.015 413.46 328.575 413.225 328.413C412.992 328.249 412.666 328.558 412.369 328.667C411.685 328.917 410.965 328.853 410.337 328.905C409.475 328.979 408.503 328.967 407.63 329.31C406.893 329.6 406.108 330.113 406.563 330.424C407.018 330.736 407.589 330.295 408.35 330.208C409.106 330.123 409.931 330.073 410.578 330.027V330.027Z" fill="white"/>
<path d="M428.312 330.118C426.184 331.318 424.06 334.719 425.773 337.359C427.487 339.999 430.319 338.884 432.777 337.421C435.084 336.047 437.184 333.399 435.665 331.028C434.29 328.873 431.44 328.359 428.312 330.118Z" fill="white"/>
<path d="M436.835 324.623C437.535 325.733 437.587 327.137 436.579 327.746C435.626 328.32 434.402 327.861 433.703 326.75C433.004 325.639 433.199 324.261 434.048 323.726C434.897 323.192 436.136 323.512 436.835 324.623Z" fill="white"/>
<path d="M422.829 333.544C423.528 334.655 423.525 335.887 422.539 336.533C421.535 337.191 420.361 336.727 419.661 335.616C418.962 334.505 419.187 333.108 420.033 332.575C420.879 332.043 422.13 332.433 422.829 333.544V333.544Z" fill="white"/>
<path d="M433.464 332.148C434.163 333.259 434.535 334.442 433.88 334.873C433.109 335.385 432.335 334.484 431.637 333.375C430.939 332.267 430.68 331.275 431.361 330.872C432.057 330.459 432.764 331.037 433.464 332.148V332.148Z" fill="#63D3A9"/>
<path d="M429.661 334.413C430.36 335.524 430.733 336.707 430.077 337.138C429.306 337.65 428.532 336.749 427.834 335.641C427.137 334.532 426.877 333.54 427.558 333.137C428.255 332.724 428.962 333.302 429.661 334.413V334.413Z" fill="#63D3A9"/>
</g>
<defs>
<clipPath id="clip0_74_43">
<rect width="40" height="40" fill="white" transform="translate(400 322.311) rotate(-32.1934)"/>
</clipPath>
</defs>
</svg>
