<svg width="120" height="120" viewBox="0 0 120 120" fill="none" xmlns="http://www.w3.org/2000/svg">
<path d="M120 60C120 93.1371 93.1371 120 60 120C26.8629 120 0 93.1371 0 60C0 26.8629 26.8629 0 60 0C93.1371 0 120 26.8629 120 60Z" fill="#63D3A9"/>
<path d="M40.3824 34.1097C40.3824 34.1097 47.4389 30.5028 59.3828 30.5028C71.3268 30.5028 79.6052 33.441 79.6052 33.441C79.6052 33.441 80.9644 30.2395 82.9961 29.1653C85.0277 28.091 88.5632 27.5645 91.5492 28.7669C94.5352 29.9692 101.997 37.7807 102.409 38.4495C102.814 39.1182 103.103 40.0858 102.965 40.349C102.828 40.6193 95.6848 51.8173 95.6848 51.8173C95.6848 51.8173 96.7693 54.4069 97.8248 58.0281C98.2731 59.5791 101.317 67.6254 99.6902 77.244C98.0634 86.8626 91.0359 97.1357 78.5207 100.479C66.0345 103.816 46.6291 104.485 34.4176 98.4732C22.5748 92.6536 18.6706 83.654 18.1284 74.3057C17.5861 64.9575 21.3819 57.1317 21.3819 57.1317L25.9946 50.9423C25.9946 50.9423 16.3064 41.5086 16.0389 40.7118C15.7641 39.9079 16.9065 38.3926 20.7023 35.184C24.498 31.9754 28.0118 29.1226 30.2893 28.3898C32.6318 27.6357 35.2274 27.9701 36.8541 29.4427C38.4809 30.9083 40.3824 34.1097 40.3824 34.1097Z" fill="black" fill-opacity="0.24"/>
</svg>
